SplineFontDB: 3.0
FontName: MarckScript-Regular
FullName: Marck Script
FamilyName: Marck Script
Weight: Book
Copyright: Copyright (c) 2011, Denis Masharov <denis.masharov@gmail.com>, Marck Fogel, with Reserved Font Names "Marck Script".
Version: 1.002
ItalicAngle: 0
UnderlinePosition: -76
UnderlineWidth: 75
Ascent: 800
Descent: 200
InvalidEm: 0
sfntRevision: 0x00010083
woffMajor: 1
woffMinor: 1
LayerCount: 2
Layer: 0 1 "Back" 1
Layer: 1 1 "Fore" 0
XUID: [1021 591 -286901576 281150]
FSType: 0
OS2Version: 2
OS2_WeightWidthSlopeOnly: 0
OS2_UseTypoMetrics: 1
CreationTime: 1318243514
ModificationTime: 1318254348
PfmFamily: 17
TTFWeight: 400
TTFWidth: 5
LineGap: 0
VLineGap: 0
Panose: 2 0 0 0 0 0 0 0 0 0
OS2TypoAscent: 864
OS2TypoAOffset: 0
OS2TypoDescent: -385
OS2TypoDOffset: 0
OS2TypoLinegap: 0
OS2WinAscent: 864
OS2WinAOffset: 0
OS2WinDescent: 385
OS2WinDOffset: 0
HheadAscent: 864
HheadAOffset: 0
HheadDescent: -385
HheadDOffset: 0
OS2SubXSize: 700
OS2SubYSize: 650
OS2SubXOff: 0
OS2SubYOff: 140
OS2SupXSize: 700
OS2SupYSize: 650
OS2SupXOff: 0
OS2SupYOff: 477
OS2StrikeYSize: 50
OS2StrikeYPos: 250
OS2CapHeight: 0
OS2XHeight: 0
OS2Vendor: 'pyrs'
OS2CodePages: 20000197.06000000
OS2UnicodeRanges: a000022f.0000004a.00000000.00000000
DEI: 91125
TtTable: prep
PUSHW_1
 511
SCANCTRL
PUSHB_1
 4
SCANTYPE
EndTTInstrs
ShortTable: maxp 16
  1
  0
  68
  116
  7
  0
  0
  2
  0
  1
  1
  0
  64
  0
  0
  0
EndShort
LangName: 1033 "" "" "" "DenisMasharov: Marck Script Regular: 2011" "" "Version 1.002" "" "Marck Script is a trademark of Denis Masharov & Marck Fogel" "Denis Masharov" "Denis Masharov, Marck Fogel" "" "denis.masharov@gmail.com" "denis.masharov@gmail.com" "This Font Software is licensed under the SIL Open Font License, Version 1.1. This license is available with a FAQ at: http://scripts.sil.org/OFL" "http://scripts.sil.org/OFL"
GaspTable: 1 65535 15 1
Encoding: UnicodeBmp
UnicodeInterp: none
NameList: AGL For New Fonts
DisplaySize: -48
AntiAlias: 1
FitToEm: 1
WinInfo: 64 16 4

StartChar: comma
Encoding: 44 44 2
Width: 134
Flags: W
LayerCount: 2
Back
Fore
SplineSet
11.5 63.5 m 128,-1,1
 25 76 25 76 44.5 76 c 128,-1,2
 64 76 64 76 75 64.5 c 128,-1,3
 86 53 86 53 86 34 c 0,4,5
 86 -10 86 -10 10 -65 c 1,6,-1
 -12 -33 l 1,7,8
 28 -1 28 -1 29 1 c 1,9,10
 -2 11 -2 11 -2 33 c 0,11,0
 -2 51 -2 51 11.5 63.5 c 128,-1,1
EndSplineSet
EndChar

StartChar: hyphen
Encoding: 45 45 3
Width: 203
Flags: W
LayerCount: 2
Back
Fore
SplineSet
206 293 m 1,0,-1
 206 246 l 1,1,-1
 -1 217 l 1,2,-1
 -13 271 l 1,3,4
 73 288 73 288 206 293 c 1,0,-1
EndSplineSet
EndChar

StartChar: period
Encoding: 46 46 4
Width: 131
Flags: W
LayerCount: 2
Back
Fore
SplineSet
-1 35 m 128,-1,1
 -1 52 -1 52 11 64 c 128,-1,2
 23 76 23 76 40 76 c 128,-1,3
 57 76 57 76 69 64 c 128,-1,4
 81 52 81 52 81 35 c 128,-1,5
 81 18 81 18 69 6 c 128,-1,6
 57 -6 57 -6 40 -6 c 128,-1,7
 23 -6 23 -6 11 6 c 128,-1,0
 -1 18 -1 18 -1 35 c 128,-1,1
EndSplineSet
EndChar

StartChar: zero
Encoding: 48 48 5
Width: 452
Flags: W
LayerCount: 2
Back
Fore
SplineSet
417.5 460 m 128,-1,1
 451 428 451 428 451 367.5 c 128,-1,2
 451 307 451 307 400 220 c 128,-1,3
 349 133 349 133 267.5 68.5 c 128,-1,4
 186 4 186 4 112 4 c 0,5,6
 -9 4 -9 4 -9 139 c 0,7,8
 -9 218 -9 218 41.5 300.5 c 128,-1,9
 92 383 92 383 171.5 437.5 c 128,-1,10
 251 492 251 492 328 492 c 0,11,0
 384 492 384 492 417.5 460 c 128,-1,1
340.5 227 m 128,-1,13
 371 294 371 294 371 344.5 c 128,-1,14
 371 395 371 395 348 421.5 c 128,-1,15
 325 448 325 448 285 448 c 0,16,17
 215 448 215 448 145.5 357.5 c 128,-1,18
 76 267 76 267 76 176 c 0,19,20
 76 127 76 127 99 95.5 c 128,-1,21
 122 64 122 64 166.5 64 c 128,-1,22
 211 64 211 64 260.5 112 c 128,-1,12
 310 160 310 160 340.5 227 c 128,-1,13
EndSplineSet
EndChar

StartChar: one
Encoding: 49 49 6
Width: 218
Flags: W
LayerCount: 2
Back
Fore
SplineSet
231 473 m 0,0,1
 228 456 228 456 190 386 c 0,2,3
 70 170 70 170 63 18 c 1,4,-1
 -1 8 l 1,5,6
 -7 24 -7 24 -7 61 c 0,7,8
 -7 150 -7 150 109 386 c 1,9,10
 71 371 71 371 47 371 c 128,-1,11
 23 371 23 371 2 379 c 1,12,-1
 24 430 l 1,13,14
 36 427 36 427 48 427 c 0,15,16
 80 427 80 427 113 447 c 128,-1,17
 146 467 146 467 164 492 c 128,-1,18
 182 517 182 517 195 517 c 128,-1,19
 208 517 208 517 220.5 508 c 128,-1,20
 233 499 233 499 233 488 c 128,-1,21
 233 477 233 477 231 473 c 0,0,1
EndSplineSet
EndChar

StartChar: two
Encoding: 50 50 7
Width: 413
Flags: W
LayerCount: 2
Back
Fore
SplineSet
213 454.5 m 128,-1,1
 282 492 282 492 328.5 492 c 128,-1,2
 375 492 375 492 402 467 c 128,-1,3
 429 442 429 442 429 396 c 128,-1,4
 429 350 429 350 392 312.5 c 128,-1,5
 355 275 355 275 244 218.5 c 128,-1,6
 133 162 133 162 38 80 c 1,7,8
 175 101 175 101 293 101 c 0,9,10
 320 101 320 101 336 99 c 1,11,-1
 336 36 l 1,12,13
 314 32 314 32 306.5 32.5 c 128,-1,14
 299 33 299 33 282 32 c 128,-1,15
 265 31 265 31 216 28.5 c 128,-1,16
 167 26 167 26 115.5 21 c 128,-1,17
 64 16 64 16 45.5 13.5 c 128,-1,18
 27 11 27 11 23 11 c 0,19,20
 7 11 7 11 -5 31.5 c 128,-1,21
 -17 52 -17 52 -17 71 c 1,22,23
 -9 102 -9 102 62.5 161 c 128,-1,24
 134 220 134 220 246 278 c 0,25,26
 279 295 279 295 307 322 c 128,-1,27
 335 349 335 349 335 373 c 0,28,29
 335 419 335 419 286 419 c 0,30,31
 221 419 221 419 119 335 c 1,32,-1
 102 368 l 1,33,0
 144 417 144 417 213 454.5 c 128,-1,1
EndSplineSet
EndChar

StartChar: three
Encoding: 51 51 8
Width: 407
Flags: W
LayerCount: 2
Back
Fore
SplineSet
427 404 m 0,0,1
 427 355 427 355 374.5 316 c 128,-1,2
 322 277 322 277 269 261 c 1,3,4
 310 237 310 237 331.5 216 c 128,-1,5
 353 195 353 195 353 168 c 0,6,7
 353 102 353 102 279 52.5 c 128,-1,8
 205 3 205 3 120 3 c 0,9,10
 79 3 79 3 38.5 16 c 128,-1,11
 -2 29 -2 29 -18 47 c 1,12,-1
 27 89 l 1,13,14
 41 75 41 75 64.5 64 c 128,-1,15
 88 53 88 53 105 53 c 0,16,17
 164 53 164 53 212.5 83.5 c 128,-1,18
 261 114 261 114 261 157 c 0,19,20
 261 183 261 183 237 203 c 128,-1,21
 213 223 213 223 173 234 c 0,22,23
 150 241 150 241 150 257 c 0,24,25
 150 279 150 279 240 300 c 0,26,27
 273 308 273 308 301 326.5 c 128,-1,28
 329 345 329 345 329 367.5 c 128,-1,29
 329 390 329 390 313.5 402.5 c 128,-1,30
 298 415 298 415 275 415 c 128,-1,31
 252 415 252 415 204.5 390.5 c 128,-1,32
 157 366 157 366 106 327 c 1,33,-1
 90 360 l 1,34,35
 132 410 132 410 204.5 448 c 128,-1,36
 277 486 277 486 321 486 c 128,-1,37
 365 486 365 486 396 461.5 c 128,-1,38
 427 437 427 437 427 404 c 0,0,1
EndSplineSet
EndChar

StartChar: four
Encoding: 52 52 9
Width: 386
Flags: W
LayerCount: 2
Back
Fore
SplineSet
159 40 m 0,0,1
 159 93 159 93 188 168 c 1,2,3
 125 163 125 163 85.5 155 c 128,-1,4
 46 147 46 147 43 147 c 0,5,6
 20 147 20 147 7.5 164 c 128,-1,7
 -5 181 -5 181 -5 195.5 c 128,-1,8
 -5 210 -5 210 -4 214 c 0,9,10
 2 246 2 246 80 317.5 c 128,-1,11
 158 389 158 389 244 447 c 128,-1,12
 330 505 330 505 357 505 c 0,13,14
 374 505 374 505 384.5 494 c 128,-1,15
 395 483 395 483 395 465.5 c 128,-1,16
 395 448 395 448 376 417.5 c 128,-1,17
 357 387 357 387 343.5 361 c 128,-1,18
 330 335 330 335 321 315 c 0,19,20
 303 274 303 274 292 244 c 1,21,22
 326 246 326 246 349 246 c 128,-1,23
 372 246 372 246 388 244 c 1,24,25
 375 179 375 179 371 176 c 2,26,-1
 263 174 l 1,27,28
 237 127 237 127 221 17 c 1,29,-1
 163 8 l 1,30,31
 159 21 159 21 159 40 c 0,0,1
213 237 m 1,32,33
 236 299 236 299 307 431 c 1,34,35
 247 400 247 400 167 330 c 128,-1,36
 87 260 87 260 58 214 c 1,37,38
 160 232 160 232 213 237 c 1,32,33
EndSplineSet
EndChar

StartChar: five
Encoding: 53 53 10
Width: 384
Flags: W
LayerCount: 2
Back
Fore
SplineSet
433 422 m 1,0,1
 420 423 420 423 372.5 423 c 128,-1,2
 325 423 325 423 292.5 419 c 128,-1,3
 260 415 260 415 211 402 c 1,4,5
 153 317 153 317 140 282 c 1,6,7
 167 285 167 285 188 285 c 0,8,9
 256 285 256 285 304 252 c 128,-1,10
 352 219 352 219 352 170 c 0,11,12
 352 101 352 101 280 52 c 128,-1,13
 208 3 208 3 115.5 3 c 128,-1,14
 23 3 23 3 -14 51 c 1,15,-1
 28 89 l 1,16,17
 40 75 40 75 69 64 c 128,-1,18
 98 53 98 53 122 53 c 0,19,20
 178 53 178 53 220 85 c 128,-1,21
 262 117 262 117 262 163 c 0,22,23
 262 195 262 195 225 216 c 128,-1,24
 188 237 188 237 129 237 c 128,-1,25
 70 237 70 237 70 273 c 0,26,27
 70 289 70 289 98.5 338 c 128,-1,28
 127 387 127 387 130.5 394 c 128,-1,29
 134 401 134 401 141.5 412 c 128,-1,30
 149 423 149 423 152 426.5 c 128,-1,31
 155 430 155 430 162 438 c 128,-1,32
 169 446 169 446 174 450 c 0,33,34
 189 458 189 458 209 464 c 0,35,36
 288 483 288 483 390 483 c 2,37,-1
 437 483 l 1,38,-1
 433 422 l 1,0,1
EndSplineSet
EndChar

StartChar: six
Encoding: 54 54 11
Width: 401
Flags: W
LayerCount: 2
Back
Fore
SplineSet
299 328 m 0,0,1
 338 328 338 328 363.5 304.5 c 128,-1,2
 389 281 389 281 389 243 c 0,3,4
 389 162 389 162 297.5 83.5 c 128,-1,5
 206 5 206 5 127 5 c 0,6,7
 66 5 66 5 32 37 c 128,-1,8
 -2 69 -2 69 -2 130 c 0,9,10
 -2 233 -2 233 58 321 c 128,-1,11
 118 409 118 409 201 454.5 c 128,-1,12
 284 500 284 500 361 501 c 1,13,-1
 366 461 l 1,14,15
 243 433 243 433 194 392 c 0,16,17
 137 342 137 342 98 254 c 1,18,19
 196 328 196 328 299 328 c 0,0,1
168 60 m 0,20,21
 219 60 219 60 264.5 104.5 c 128,-1,22
 310 149 310 149 310 199 c 0,23,24
 310 227 310 227 289.5 243 c 128,-1,25
 269 259 269 259 237 259 c 128,-1,26
 205 259 205 259 148.5 237.5 c 128,-1,27
 92 216 92 216 87 189 c 0,28,29
 84 174 84 174 84 161 c 0,30,31
 84 117 84 117 108.5 88.5 c 128,-1,32
 133 60 133 60 168 60 c 0,20,21
EndSplineSet
EndChar

StartChar: seven
Encoding: 55 55 12
Width: 311
Flags: W
LayerCount: 2
Back
Fore
SplineSet
372 486 m 0,0,1
 390 472 390 472 390 452 c 128,-1,2
 390 432 390 432 357 407 c 128,-1,3
 324 382 324 382 291.5 353.5 c 128,-1,4
 259 325 259 325 220.5 283 c 128,-1,5
 182 241 182 241 153 200 c 0,6,7
 85 102 85 102 79 9 c 1,8,-1
 6 2 l 1,9,10
 8 79 8 79 70 200 c 0,11,12
 100 261 100 261 155 323 c 128,-1,13
 210 385 210 385 280 429 c 1,14,15
 180 428 180 428 26 388 c 1,16,-1
 14 452 l 1,17,18
 37 462 37 462 146.5 479 c 128,-1,19
 256 496 256 496 308.5 496 c 128,-1,20
 361 496 361 496 372 486 c 0,0,1
EndSplineSet
EndChar

StartChar: eight
Encoding: 56 56 13
Width: 436
Flags: W
LayerCount: 2
Back
Fore
SplineSet
188 293 m 1,0,1
 143 332 143 332 143 368 c 0,2,3
 143 418 143 418 195 454.5 c 128,-1,4
 247 491 247 491 312.5 491 c 128,-1,5
 378 491 378 491 414.5 465.5 c 128,-1,6
 451 440 451 440 451 399 c 0,7,8
 451 330 451 330 334 294 c 1,9,10
 391 271 391 271 391 218 c 0,11,12
 391 136 391 136 303 72.5 c 128,-1,13
 215 9 215 9 129 9 c 0,14,15
 67 9 67 9 30.5 41 c 128,-1,16
 -6 73 -6 73 -6 127 c 128,-1,17
 -6 181 -6 181 47.5 227 c 128,-1,18
 101 273 101 273 188 293 c 1,0,1
283 322 m 1,19,20
 318 332 318 332 339 354.5 c 128,-1,21
 360 377 360 377 360 406 c 0,22,23
 360 446 360 446 307 446 c 0,24,25
 275 446 275 446 254 429.5 c 128,-1,26
 233 413 233 413 233 387 c 0,27,28
 233 345 233 345 283 322 c 1,19,20
230 266 m 1,29,30
 167 252 167 252 124.5 217 c 128,-1,31
 82 182 82 182 82 145.5 c 128,-1,32
 82 109 82 109 109 85 c 128,-1,33
 136 61 136 61 179.5 61 c 128,-1,34
 223 61 223 61 264 101.5 c 128,-1,35
 305 142 305 142 305 187 c 0,36,37
 305 214 305 214 286.5 236.5 c 128,-1,38
 268 259 268 259 230 266 c 1,29,30
EndSplineSet
EndChar

StartChar: nine
Encoding: 57 57 14
Width: 365
Flags: W
LayerCount: 2
Back
Fore
SplineSet
113 184 m 0,0,1
 74 184 74 184 48.5 207.5 c 128,-1,2
 23 231 23 231 23 269 c 0,3,4
 23 323 23 323 67 377.5 c 128,-1,5
 111 432 111 432 171.5 465 c 128,-1,6
 232 498 232 498 282 498 c 0,7,8
 414 498 414 498 414 382 c 0,9,10
 414 305 414 305 376 233 c 128,-1,11
 338 161 338 161 279.5 112 c 128,-1,12
 221 63 221 63 151.5 34 c 128,-1,13
 82 5 82 5 19 5 c 2,14,-1
 10 5 l 1,15,-1
 5 45 l 1,16,17
 149 78 149 78 207 122 c 0,18,19
 234 142 234 142 264 177 c 128,-1,20
 294 212 294 212 314 258 c 1,21,22
 216 184 216 184 113 184 c 0,0,1
262 450 m 0,23,24
 209 450 209 450 155.5 406 c 128,-1,25
 102 362 102 362 102 313 c 0,26,27
 102 285 102 285 122.5 269 c 128,-1,28
 143 253 143 253 175 253 c 0,29,30
 230 253 230 253 281.5 290 c 128,-1,31
 333 327 333 327 333 380 c 0,32,33
 333 411 333 411 312.5 430.5 c 128,-1,34
 292 450 292 450 262 450 c 0,23,24
EndSplineSet
EndChar

StartChar: colon
Encoding: 58 58 15
Width: 116
Flags: W
LayerCount: 2
Back
Fore
SplineSet
16 211 m 128,-1,1
 16 228 16 228 27.5 239.5 c 128,-1,2
 39 251 39 251 55.5 251 c 128,-1,3
 72 251 72 251 83.5 239.5 c 128,-1,4
 95 228 95 228 95 211.5 c 128,-1,5
 95 195 95 195 83.5 183.5 c 128,-1,6
 72 172 72 172 55 172 c 128,-1,7
 38 172 38 172 27 183 c 128,-1,0
 16 194 16 194 16 211 c 128,-1,1
-18 39 m 128,-1,9
 -18 56 -18 56 -6.5 67.5 c 128,-1,10
 5 79 5 79 21.5 79 c 128,-1,11
 38 79 38 79 49.5 67.5 c 128,-1,12
 61 56 61 56 61 39.5 c 128,-1,13
 61 23 61 23 49.5 11.5 c 128,-1,14
 38 0 38 0 21 0 c 128,-1,15
 4 0 4 0 -7 11 c 128,-1,8
 -18 22 -18 22 -18 39 c 128,-1,9
EndSplineSet
EndChar

StartChar: A
Encoding: 65 65 16
Width: 790
Flags: W
LayerCount: 2
Back
Fore
SplineSet
746 298 m 1,0,-1
 741 238 l 1,1,2
 718 240 718 240 691.5 240 c 128,-1,3
 665 240 665 240 647 239 c 1,4,5
 633 129 633 129 629 0 c 1,6,-1
 559 0 l 1,7,8
 553 26 553 26 553 69 c 128,-1,9
 553 112 553 112 555.5 143.5 c 128,-1,10
 558 175 558 175 562 206 c 128,-1,11
 566 237 566 237 566 242 c 1,12,13
 552 243 552 243 500 243 c 128,-1,14
 448 243 448 243 428 241 c 1,15,16
 312 85 312 85 214 4.5 c 128,-1,17
 116 -76 116 -76 18 -76 c 0,18,19
 -30 -76 -30 -76 -62.5 -47 c 128,-1,20
 -95 -18 -95 -18 -95 30 c 0,21,22
 -95 121 -95 121 43.5 196 c 128,-1,23
 182 271 182 271 402 297 c 1,24,25
 428 337 428 337 499 420.5 c 128,-1,26
 570 504 570 504 639 566 c 1,27,28
 669 636 669 636 686.5 663.5 c 128,-1,29
 704 691 704 691 721 691 c 128,-1,30
 738 691 738 691 749 678 c 128,-1,31
 760 665 760 665 760 644.5 c 128,-1,32
 760 624 760 624 737.5 584.5 c 128,-1,33
 715 545 715 545 691 462.5 c 128,-1,34
 667 380 667 380 658 307 c 1,35,36
 710 307 710 307 746 298 c 1,0,-1
236 89 m 0,37,38
 319 168 319 168 361 239 c 1,39,40
 193 229 193 229 101.5 176 c 128,-1,41
 10 123 10 123 10 63 c 0,42,43
 10 37 10 37 27.5 22 c 128,-1,44
 45 7 45 7 74 7 c 0,45,46
 152 7 152 7 236 89 c 0,37,38
578 307 m 0,47,48
 585 341 585 341 596.5 392.5 c 128,-1,49
 608 444 608 444 610 453 c 1,50,51
 562 407 562 407 543 385.5 c 128,-1,52
 524 364 524 364 476 303 c 1,53,54
 493 304 493 304 517.5 304.5 c 128,-1,55
 542 305 542 305 558 306 c 128,-1,56
 574 307 574 307 578 307 c 0,47,48
EndSplineSet
EndChar

StartChar: B
Encoding: 66 66 17
Width: 667
Flags: W
LayerCount: 2
Back
Fore
SplineSet
637 181 m 1,0,-1
 636 142 l 1,1,-1
 581 140 l 1,2,3
 569 70 569 70 542.5 27 c 128,-1,4
 516 -16 516 -16 454 -66 c 128,-1,5
 392 -116 392 -116 305.5 -149.5 c 128,-1,6
 219 -183 219 -183 161 -183 c 128,-1,7
 103 -183 103 -183 73 -159.5 c 128,-1,8
 43 -136 43 -136 43 -98 c 0,9,10
 43 -40 43 -40 111.5 18.5 c 128,-1,11
 180 77 180 77 277.5 116.5 c 128,-1,12
 375 156 375 156 471 170 c 1,13,14
 456 195 456 195 425.5 211 c 128,-1,15
 395 227 395 227 322 247 c 0,16,17
 282 258 282 258 282 283 c 0,18,19
 282 298 282 298 294.5 310.5 c 128,-1,20
 307 323 307 323 336.5 340.5 c 128,-1,21
 366 358 366 358 392.5 376.5 c 128,-1,22
 419 395 419 395 451.5 421 c 128,-1,23
 484 447 484 447 506 475 c 128,-1,24
 528 503 528 503 528 524 c 0,25,26
 528 559 528 559 493 559 c 0,27,28
 466 559 466 559 419.5 533.5 c 128,-1,29
 373 508 373 508 328 468 c 1,30,-1
 285 332 l 2,31,32
 240 189 240 189 185.5 110 c 128,-1,33
 131 31 131 31 82 31 c 0,34,35
 30 31 30 31 30 95 c 128,-1,36
 30 159 30 159 92 258.5 c 128,-1,37
 154 358 154 358 264 463 c 0,38,39
 264 464 264 464 269.5 481.5 c 128,-1,40
 275 499 275 499 280 517 c 0,41,42
 297 571 297 571 306 586 c 1,43,-1
 355 578 l 1,44,45
 355 559 355 559 347 533 c 1,46,47
 403 575 403 575 465.5 606.5 c 128,-1,48
 528 638 528 638 557.5 638 c 128,-1,49
 587 638 587 638 605 619.5 c 128,-1,50
 623 601 623 601 623 565.5 c 128,-1,51
 623 530 623 530 589.5 484 c 128,-1,52
 556 438 556 438 506 401 c 0,53,54
 415 333 415 333 351 303 c 1,55,56
 455 287 455 287 503 260.5 c 128,-1,57
 551 234 551 234 573 181 c 1,58,-1
 637 181 l 1,0,-1
151 158 m 0,59,60
 221 271 221 271 244 390 c 1,61,62
 190 331 190 331 146 255 c 128,-1,63
 102 179 102 179 102 145 c 0,64,65
 102 124 102 124 116.5 124 c 128,-1,66
 131 124 131 124 151 158 c 0,59,60
383 -56 m 0,67,68
 432 -23 432 -23 461 18 c 128,-1,69
 490 59 490 59 490 95 c 0,70,71
 490 112 490 112 485 129 c 1,72,73
 335 111 335 111 238 50.5 c 128,-1,74
 141 -10 141 -10 141 -65 c 0,75,76
 141 -89 141 -89 160 -103.5 c 128,-1,77
 179 -118 179 -118 212 -118 c 0,78,79
 293 -118 293 -118 383 -56 c 0,67,68
EndSplineSet
EndChar

StartChar: C
Encoding: 67 67 18
Width: 608
Flags: W
LayerCount: 2
Back
Fore
SplineSet
500 632 m 0,0,1
 537 632 537 632 557.5 611.5 c 128,-1,2
 578 591 578 591 578 556 c 0,3,4
 578 478 578 478 485 411.5 c 128,-1,5
 392 345 392 345 273 345 c 0,6,7
 221 345 221 345 163 360 c 1,8,9
 125 298 125 298 125 225.5 c 128,-1,10
 125 153 125 153 165 108.5 c 128,-1,11
 205 64 205 64 282 64 c 0,12,13
 420 64 420 64 463 225 c 1,14,-1
 510 225 l 1,15,16
 499 132 499 132 422.5 61 c 128,-1,17
 346 -10 346 -10 221 -10 c 0,18,19
 155 -10 155 -10 98 38.5 c 128,-1,20
 41 87 41 87 41 179 c 128,-1,21
 41 271 41 271 111 380 c 1,22,23
 60 410 60 410 30 454 c 1,24,-1
 57 484 l 1,25,26
 64 477 64 477 76 463 c 0,27,28
 99 436 99 436 138 416 c 1,29,30
 197 498 197 498 309.5 565 c 128,-1,31
 422 632 422 632 500 632 c 0,0,1
270 385 m 0,32,33
 357 385 357 385 423 426 c 128,-1,34
 489 467 489 467 489 522 c 0,35,36
 489 541 489 541 475.5 552.5 c 128,-1,37
 462 564 462 564 441 564 c 0,38,39
 380 564 380 564 305 515.5 c 128,-1,40
 230 467 230 467 186 399 c 1,41,42
 222 385 222 385 270 385 c 0,32,33
EndSplineSet
EndChar

StartChar: D
Encoding: 68 68 19
Width: 684
Flags: W
LayerCount: 2
Back
Fore
SplineSet
233 638 m 0,0,1
 407 638 407 638 530.5 535 c 128,-1,2
 654 432 654 432 654 294 c 128,-1,3
 654 156 654 156 570 76 c 128,-1,4
 486 -4 486 -4 357 -2 c 0,5,6
 288 -1 288 -1 247 -1 c 2,7,-1
 200 -1 l 2,8,9
 171 -1 171 -1 171 21 c 0,10,11
 171 29 171 29 188 62 c 0,12,13
 244 174 244 174 273 291 c 1,14,15
 170 291 170 291 80 348 c 128,-1,16
 -10 405 -10 405 -10 477.5 c 128,-1,17
 -10 550 -10 550 58 594 c 128,-1,18
 126 638 126 638 233 638 c 0,0,1
229 597 m 0,19,20
 163 597 163 597 125 569 c 128,-1,21
 87 541 87 541 87 486.5 c 128,-1,22
 87 432 87 432 139.5 389.5 c 128,-1,23
 192 347 192 347 280 336 c 1,24,25
 311 467 311 467 316 505 c 1,26,-1
 376 499 l 1,27,28
 376 437 376 437 350 335 c 1,29,30
 358 335 358 335 443 345 c 1,31,-1
 448 312 l 1,32,33
 428 305 428 305 337 291 c 1,34,35
 298 165 298 165 256 73 c 1,36,37
 356 65 356 65 422.5 65 c 128,-1,38
 489 65 489 65 528 114.5 c 128,-1,39
 567 164 567 164 567 248 c 0,40,41
 567 393 567 393 468 495 c 128,-1,42
 369 597 369 597 229 597 c 0,19,20
EndSplineSet
EndChar

StartChar: E
Encoding: 69 69 20
Width: 669
Flags: W
LayerCount: 2
Back
Fore
SplineSet
639 574 m 0,0,1
 639 524 639 524 591.5 485 c 128,-1,2
 544 446 544 446 482.5 428 c 128,-1,3
 421 410 421 410 364 410 c 0,4,5
 349 410 349 410 342 411 c 1,6,-1
 342 445 l 2,7,8
 344 445 344 445 400 454.5 c 128,-1,9
 456 464 456 464 494.5 488 c 128,-1,10
 533 512 533 512 533 542 c 0,11,12
 533 578 533 578 479 578 c 0,13,14
 406 578 406 578 341 528 c 128,-1,15
 276 478 276 478 276 423 c 128,-1,16
 276 368 276 368 344 352 c 0,17,18
 359 348 359 348 364 344 c 128,-1,19
 369 340 369 340 369 330 c 128,-1,20
 369 320 369 320 359.5 313.5 c 128,-1,21
 350 307 350 307 316 295 c 0,22,23
 132 232 132 232 132 99 c 0,24,25
 132 72 132 72 142 53 c 1,26,27
 203 131 203 131 300 180 c 128,-1,28
 397 229 397 229 487 229 c 0,29,30
 534 229 534 229 562 208.5 c 128,-1,31
 590 188 590 188 590 152 c 0,32,33
 590 96 590 96 538 40 c 128,-1,34
 486 -16 486 -16 403.5 -51.5 c 128,-1,35
 321 -87 321 -87 239.5 -87 c 128,-1,36
 158 -87 158 -87 111 -57 c 0,37,38
 110 -58 110 -58 102 -72 c 0,39,40
 82 -112 82 -112 68 -128 c 1,41,-1
 35 -114 l 1,42,43
 42 -86 42 -86 76 -29 c 1,44,45
 30 23 30 23 30 87.5 c 128,-1,46
 30 152 30 152 82.5 210.5 c 128,-1,47
 135 269 135 269 229 307 c 1,48,49
 182 346 182 346 182 388 c 0,50,51
 182 445 182 445 242 504.5 c 128,-1,52
 302 564 302 564 388.5 601 c 128,-1,53
 475 638 475 638 551 638 c 0,54,55
 591 638 591 638 615 620.5 c 128,-1,56
 639 603 639 603 639 574 c 0,0,1
429 169 m 0,57,58
 370 169 370 169 291.5 124 c 128,-1,59
 213 79 213 79 164 17 c 1,60,61
 204 -28 204 -28 277.5 -28 c 128,-1,62
 351 -28 351 -28 421.5 19.5 c 128,-1,63
 492 67 492 67 492 122 c 0,64,65
 492 144 492 144 475 156.5 c 128,-1,66
 458 169 458 169 429 169 c 0,57,58
EndSplineSet
EndChar

StartChar: F
Encoding: 70 70 21
Width: 763
Flags: W
LayerCount: 2
Back
Fore
SplineSet
494 621 m 1,0,-1
 731 614 l 2,1,2
 749 614 749 614 776.5 622.5 c 128,-1,3
 804 631 804 631 813 631 c 128,-1,4
 822 631 822 631 827.5 625.5 c 128,-1,5
 833 620 833 620 833 612 c 0,6,7
 833 591 833 591 814 576.5 c 128,-1,8
 795 562 795 562 764 556 c 0,9,10
 706 543 706 543 661 543 c 1,11,12
 600 501 600 501 542 301 c 1,13,14
 641 301 641 301 665 298 c 1,15,-1
 663 251 l 1,16,17
 648 250 648 250 618 250 c 2,18,-1
 527 253 l 1,19,20
 471 82 471 82 376 -19 c 128,-1,21
 281 -120 281 -120 175 -120 c 0,22,23
 110 -120 110 -120 70 -81 c 128,-1,24
 30 -42 30 -42 30 22 c 0,25,26
 30 125 30 125 153 209.5 c 128,-1,27
 276 294 276 294 456 299 c 1,28,29
 517 491 517 491 599 543 c 1,30,-1
 438 549 l 2,31,32
 337 549 337 549 287.5 523 c 128,-1,33
 238 497 238 497 238 454 c 0,34,35
 238 431 238 431 257 415.5 c 128,-1,36
 276 400 276 400 295 400 c 128,-1,37
 314 400 314 400 323.5 401.5 c 128,-1,38
 333 403 333 403 347.5 408.5 c 128,-1,39
 362 414 362 414 368 416 c 0,40,41
 389 423 389 423 419 438 c 1,42,-1
 440 412 l 1,43,44
 364 336 364 336 274 336 c 0,45,46
 234 336 234 336 208 361 c 128,-1,47
 182 386 182 386 182 424 c 0,48,49
 182 507 182 507 267 564 c 128,-1,50
 352 621 352 621 494 621 c 1,0,-1
354 62 m 0,51,52
 408 146 408 146 440 250 c 1,53,54
 316 240 316 240 221.5 171 c 128,-1,55
 127 102 127 102 127 23 c 0,56,57
 127 -8 127 -8 148.5 -28 c 128,-1,58
 170 -48 170 -48 205 -48 c 128,-1,59
 240 -48 240 -48 281 -18.5 c 128,-1,60
 322 11 322 11 354 62 c 0,51,52
EndSplineSet
EndChar

StartChar: G
Encoding: 71 71 22
Width: 679
Flags: W
LayerCount: 2
Back
Fore
SplineSet
525 -8 m 1,0,-1
 510 -42 l 1,1,2
 412 -25 412 -25 397 -24 c 1,3,4
 348 -157 348 -157 257 -234 c 128,-1,5
 166 -311 166 -311 53 -311 c 0,6,7
 -8 -311 -8 -311 -49 -278 c 128,-1,8
 -90 -245 -90 -245 -90 -196 c 0,9,10
 -90 -110 -90 -110 28.5 -45 c 128,-1,11
 147 20 147 20 316 20 c 0,12,13
 339 20 339 20 351 19 c 1,14,15
 369 57 369 57 380 100 c 1,16,17
 316 57 316 57 243.5 57 c 128,-1,18
 171 57 171 57 122.5 108.5 c 128,-1,19
 74 160 74 160 74 244.5 c 128,-1,20
 74 329 74 329 130.5 422.5 c 128,-1,21
 187 516 187 516 279.5 577 c 128,-1,22
 372 638 372 638 468 638 c 0,23,24
 524 638 524 638 574 618.5 c 128,-1,25
 624 599 624 599 649 572 c 1,26,-1
 595 507 l 1,27,28
 554 539 554 539 537 550 c 0,29,30
 493 580 493 580 443 580 c 0,31,32
 340 580 340 580 252 480.5 c 128,-1,33
 164 381 164 381 164 264 c 0,34,35
 164 200 164 200 200 163 c 128,-1,36
 236 126 236 126 294.5 126 c 128,-1,37
 353 126 353 126 400 154 c 1,38,39
 458 307 458 307 508 307 c 0,40,41
 537 307 537 307 537 279 c 128,-1,42
 537 251 537 251 515.5 214.5 c 128,-1,43
 494 178 494 178 460 149 c 1,44,45
 419 39 419 39 412 17 c 1,46,47
 482 9 482 9 525 -8 c 1,0,-1
102 -243 m 0,48,49
 170 -243 170 -243 236.5 -180 c 128,-1,50
 303 -117 303 -117 337 -22 c 1,51,52
 202 -22 202 -22 108.5 -67.5 c 128,-1,53
 15 -113 15 -113 15 -178 c 0,54,55
 15 -208 15 -208 38.5 -225.5 c 128,-1,56
 62 -243 62 -243 102 -243 c 0,48,49
EndSplineSet
EndChar

StartChar: H
Encoding: 72 72 23
Width: 825
Flags: W
LayerCount: 2
Back
Fore
SplineSet
750 637 m 1,0,-1
 795 615 l 1,1,2
 728 484 728 484 656 278 c 1,3,4
 702 278 702 278 719 274 c 1,5,-1
 715 217 l 1,6,7
 694 210 694 210 633 210 c 1,8,9
 612 152 612 152 608 116 c 128,-1,10
 604 80 604 80 601.5 46 c 128,-1,11
 599 12 599 12 598 0 c 1,12,-1
 542 0 l 1,13,14
 537 17 537 17 537 35 c 0,15,16
 537 97 537 97 570 210 c 1,17,18
 510 210 510 210 388 196 c 1,19,20
 383 180 383 180 363 136.5 c 128,-1,21
 343 93 343 93 323.5 61 c 128,-1,22
 304 29 304 29 271 -9 c 128,-1,23
 238 -47 238 -47 202 -73 c 0,24,25
 99 -147 99 -147 2 -147 c 0,26,27
 -38 -147 -38 -147 -64 -122 c 128,-1,28
 -90 -97 -90 -97 -90 -59 c 0,29,30
 -90 37 -90 37 20.5 115.5 c 128,-1,31
 131 194 131 194 327 241 c 1,32,33
 401 457 401 457 535 549 c 1,34,35
 390 547 390 547 296 500 c 128,-1,36
 202 453 202 453 202 380 c 0,37,38
 202 357 202 357 209 340.5 c 128,-1,39
 216 324 216 324 242 289 c 1,40,-1
 208 257 l 1,41,42
 164 285 164 285 141 325 c 128,-1,43
 118 365 118 365 118 402 c 0,44,45
 118 464 118 464 184 516.5 c 128,-1,46
 250 569 250 569 348 597.5 c 128,-1,47
 446 626 446 626 547 626 c 0,48,49
 598 626 598 626 617.5 618.5 c 128,-1,50
 637 611 637 611 637 590.5 c 128,-1,51
 637 570 637 570 608 552 c 0,52,53
 483 474 483 474 407 256 c 1,54,55
 466 266 466 266 590 278 c 1,56,57
 638 418 638 418 667.5 485.5 c 128,-1,58
 697 553 697 553 750 637 c 1,0,-1
168.5 -45.5 m 128,-1,60
 218 -13 218 -13 251.5 39.5 c 128,-1,61
 285 92 285 92 309 184 c 1,62,63
 176 162 176 162 94.5 106.5 c 128,-1,64
 13 51 13 51 13 -19 c 0,65,66
 13 -47 13 -47 29.5 -62.5 c 128,-1,67
 46 -78 46 -78 82.5 -78 c 128,-1,59
 119 -78 119 -78 168.5 -45.5 c 128,-1,60
EndSplineSet
EndChar

StartChar: I
Encoding: 73 73 24
Width: 586
Flags: W
LayerCount: 2
Back
Fore
SplineSet
589 616 m 0,0,1
 606 611 606 611 606 598 c 0,2,3
 606 594 606 594 594 580 c 0,4,5
 548 521 548 521 529.5 492 c 128,-1,6
 511 463 511 463 485.5 395 c 128,-1,7
 460 327 460 327 439.5 264.5 c 128,-1,8
 419 202 419 202 419 201 c 0,9,10
 378 109 378 109 306 56 c 128,-1,11
 234 3 234 3 155 3 c 0,12,13
 99 3 99 3 64.5 30.5 c 128,-1,14
 30 58 30 58 30 104 c 0,15,16
 30 176 30 176 123 236 c 128,-1,17
 216 296 216 296 309 296 c 1,18,-1
 313 263 l 1,19,20
 239 248 239 248 185.5 208 c 128,-1,21
 132 168 132 168 132 121 c 0,22,23
 132 91 132 91 149.5 72 c 128,-1,24
 167 53 167 53 194 53 c 0,25,26
 245 53 245 53 282 100.5 c 128,-1,27
 319 148 319 148 357.5 269 c 128,-1,28
 396 390 396 390 427.5 446 c 128,-1,29
 459 502 459 502 507 540 c 1,30,31
 493 541 493 541 476 541 c 0,32,33
 390 541 390 541 308.5 514 c 128,-1,34
 227 487 227 487 227 442 c 0,35,36
 227 414 227 414 252 389 c 1,37,-1
 230 362 l 1,38,39
 163 409 163 409 163 471 c 0,40,41
 163 512 163 512 198.5 542 c 128,-1,42
 234 572 234 572 294 588 c 0,43,44
 409 619 409 619 552 619 c 0,45,46
 583 619 583 619 589 616 c 0,0,1
EndSplineSet
EndChar

StartChar: J
Encoding: 74 74 25
Width: 702
Flags: W
LayerCount: 2
Back
Fore
SplineSet
574 622 m 0,0,1
 635 622 635 622 673.5 614.5 c 128,-1,2
 712 607 712 607 712 584 c 0,3,4
 712 564 712 564 680 545 c 0,5,6
 601 497 601 497 539.5 389.5 c 128,-1,7
 478 282 478 282 413 72 c 1,8,9
 472 72 472 72 502 67 c 1,10,-1
 496 27 l 1,11,12
 468 32 468 32 446 32 c 128,-1,13
 424 32 424 32 397 27 c 1,14,15
 366 -58 366 -58 331.5 -111 c 128,-1,16
 297 -164 297 -164 243 -210 c 128,-1,17
 189 -256 189 -256 123 -286 c 128,-1,18
 57 -316 57 -316 10.5 -316 c 128,-1,19
 -36 -316 -36 -316 -63 -290.5 c 128,-1,20
 -90 -265 -90 -265 -90 -223 c 0,21,22
 -90 -159 -90 -159 -30 -96 c 128,-1,23
 30 -33 30 -33 128.5 10 c 128,-1,24
 227 53 227 53 336 64 c 0,25,26
 338 68 338 68 367 159 c 0,27,28
 413 309 413 309 470.5 397.5 c 128,-1,29
 528 486 528 486 609 544 c 1,30,31
 592 546 592 546 564 546 c 0,32,33
 391 546 391 546 280 483 c 128,-1,34
 169 420 169 420 169 341 c 0,35,36
 169 290 169 290 199.5 246.5 c 128,-1,37
 230 203 230 203 286 157 c 1,38,-1
 262 124 l 1,39,40
 99 212 99 212 99 346 c 0,41,42
 99 424 99 424 165.5 488 c 128,-1,43
 232 552 232 552 340.5 587 c 128,-1,44
 449 622 449 622 574 622 c 0,0,1
165.5 -216 m 128,-1,46
 216 -184 216 -184 260.5 -122 c 128,-1,47
 305 -60 305 -60 323 20 c 1,48,49
 193 7 193 7 102.5 -54.5 c 128,-1,50
 12 -116 12 -116 12 -192 c 0,51,52
 12 -218 12 -218 27 -233 c 128,-1,53
 42 -248 42 -248 69 -248 c 0,54,45
 115 -248 115 -248 165.5 -216 c 128,-1,46
EndSplineSet
EndChar

StartChar: K
Encoding: 75 75 26
Width: 797
Flags: W
LayerCount: 2
Back
Fore
SplineSet
824 600 m 1,0,-1
 887 569 l 1,1,2
 823 465 823 465 735.5 384 c 128,-1,3
 648 303 648 303 503 223 c 1,4,5
 531 78 531 78 572 -9.5 c 128,-1,6
 613 -97 613 -97 679 -107 c 1,7,-1
 679 -153 l 1,8,9
 671 -154 671 -154 658 -154 c 0,10,11
 591 -154 591 -154 528.5 -61 c 128,-1,12
 466 32 466 32 416 214 c 1,13,14
 373 79 373 79 285 0.5 c 128,-1,15
 197 -78 197 -78 102 -78 c 0,16,17
 53 -78 53 -78 21.5 -51.5 c 128,-1,18
 -10 -25 -10 -25 -10 21.5 c 128,-1,19
 -10 68 -10 68 32 118 c 128,-1,20
 74 168 74 168 147 202 c 1,21,-1
 170 166 l 1,22,23
 80 102 80 102 80 46 c 0,24,25
 80 19 80 19 98 2.5 c 128,-1,26
 116 -14 116 -14 145 -14 c 0,27,28
 213 -14 213 -14 262.5 43.5 c 128,-1,29
 312 101 312 101 351 245 c 0,30,31
 400 426 400 426 451 482 c 0,32,33
 474 508 474 508 518 539 c 1,34,35
 449 537 449 537 377 515.5 c 128,-1,36
 305 494 305 494 251 451.5 c 128,-1,37
 197 409 197 409 197 357 c 0,38,39
 197 290 197 290 258 250 c 1,40,-1
 238 219 l 1,41,42
 182 246 182 246 150 289 c 128,-1,43
 118 332 118 332 118 378 c 0,44,45
 118 441 118 441 187 497 c 128,-1,46
 256 553 256 553 356.5 584 c 128,-1,47
 457 615 457 615 554 615 c 0,48,49
 614 615 614 615 614 589 c 0,50,51
 614 572 614 572 579 546 c 0,52,53
 515 498 515 498 480.5 421 c 128,-1,54
 446 344 446 344 424 241 c 1,55,56
 538 283 538 283 642.5 380.5 c 128,-1,57
 747 478 747 478 824 600 c 1,0,-1
EndSplineSet
EndChar

StartChar: L
Encoding: 76 76 27
Width: 581
Flags: W
LayerCount: 2
Back
Fore
SplineSet
175 93 m 2,0,-1
 383 87 l 2,1,2
 427 87 427 87 468 116 c 1,3,-1
 495 80 l 1,4,5
 475 57 475 57 463 45.5 c 128,-1,6
 451 34 451 34 427.5 23 c 128,-1,7
 404 12 404 12 375 12 c 2,8,-1
 188 20 l 1,9,10
 63 20 63 20 66 17 c 1,11,12
 29 18 29 18 29 50 c 0,13,14
 32 70 32 70 56 116.5 c 128,-1,15
 80 163 80 163 121 285 c 1,16,17
 59 285 59 285 10 322 c 1,18,-1
 31 359 l 1,19,20
 74 331 74 331 136 331 c 1,21,22
 194 473 194 473 283 544 c 128,-1,23
 372 615 372 615 469 615 c 0,24,25
 515 615 515 615 543 591.5 c 128,-1,26
 571 568 571 568 571 529 c 0,27,28
 571 445 571 445 460.5 371.5 c 128,-1,29
 350 298 350 298 209 289 c 1,30,31
 163 143 163 143 106 90 c 1,32,33
 131 93 131 93 175 93 c 2,0,-1
414 561 m 0,34,35
 352 561 352 561 299 498 c 128,-1,36
 246 435 246 435 223 335 c 1,37,38
 323 342 323 342 398 395 c 128,-1,39
 473 448 473 448 473 506 c 0,40,41
 473 529 473 529 456 545 c 128,-1,42
 439 561 439 561 414 561 c 0,34,35
EndSplineSet
EndChar

StartChar: M
Encoding: 77 77 28
Width: 807
Flags: W
LayerCount: 2
Back
Fore
SplineSet
817 -103 m 1,0,-1
 805 -140 l 1,1,2
 779 -142 779 -142 766 -142 c 0,3,4
 706 -142 706 -142 668.5 -91.5 c 128,-1,5
 631 -41 631 -41 631 40 c 0,6,7
 631 89 631 89 653.5 225.5 c 128,-1,8
 676 362 676 362 706 475 c 0,9,10
 712 500 712 500 712 508 c 128,-1,11
 712 516 712 516 705 516 c 128,-1,12
 698 516 698 516 660.5 441.5 c 128,-1,13
 623 367 623 367 571 258.5 c 128,-1,14
 519 150 519 150 511.5 134.5 c 128,-1,15
 504 119 504 119 499.5 109.5 c 128,-1,16
 495 100 495 100 481.5 75.5 c 128,-1,17
 468 51 468 51 456 32 c 0,18,19
 423 -18 423 -18 404 -18 c 0,20,21
 391 -18 391 -18 375.5 -11 c 128,-1,22
 360 -4 360 -4 355 4 c 0,23,24
 344 21 344 21 344 110 c 0,25,26
 344 296 344 296 374 465 c 0,27,28
 384 521 384 521 384 524 c 0,29,30
 384 534 384 534 376 534 c 0,31,32
 360 534 360 534 325 434 c 2,33,-1
 296 351 l 2,34,35
 232 170 232 170 166.5 69 c 128,-1,36
 101 -32 101 -32 16 -73 c 1,37,-1
 -10 -18 l 1,38,39
 87 54 87 54 139.5 129 c 128,-1,40
 192 204 192 204 254 371 c 2,41,-1
 288 462 l 2,42,43
 323 557 323 557 349 597.5 c 128,-1,44
 375 638 375 638 407 638 c 0,45,46
 460 638 460 638 460 574 c 0,47,48
 460 569 460 569 441 371.5 c 128,-1,49
 422 174 422 174 422 111 c 0,50,51
 422 93 422 93 428 92 c 0,52,53
 433 92 433 92 439 102 c 0,54,55
 520 237 520 237 594 396 c 0,56,57
 603 416 603 416 625 465 c 128,-1,58
 647 514 647 514 668 552 c 128,-1,59
 689 590 689 590 700 598.5 c 128,-1,60
 711 607 711 607 735 607 c 128,-1,61
 759 607 759 607 776.5 589.5 c 128,-1,62
 794 572 794 572 794 548 c 128,-1,63
 794 524 794 524 787 493 c 0,64,65
 709 112 709 112 709 37.5 c 128,-1,66
 709 -37 709 -37 733 -64.5 c 128,-1,67
 757 -92 757 -92 817 -103 c 1,0,-1
EndSplineSet
EndChar

StartChar: N
Encoding: 78 78 29
Width: 724
Flags: W
LayerCount: 2
Back
Fore
SplineSet
676 611 m 1,0,-1
 734 604 l 1,1,2
 716 526 716 526 685.5 421.5 c 128,-1,3
 655 317 655 317 630 252.5 c 128,-1,4
 605 188 605 188 575.5 124.5 c 128,-1,5
 546 61 546 61 513 24.5 c 128,-1,6
 480 -12 480 -12 449 -12 c 128,-1,7
 418 -12 418 -12 403.5 11 c 128,-1,8
 389 34 389 34 389 92.5 c 128,-1,9
 389 151 389 151 406 338.5 c 128,-1,10
 423 526 423 526 423.5 542.5 c 128,-1,11
 424 559 424 559 415 559 c 0,12,13
 404 559 404 559 389 528.5 c 128,-1,14
 374 498 374 498 366 482 c 0,15,16
 345 435 345 435 339 416 c 0,17,18
 283 290 283 290 239 208 c 128,-1,19
 195 126 195 126 138 56 c 0,20,21
 118 32 118 32 81 7 c 128,-1,22
 44 -18 44 -18 12 -31 c 1,23,-1
 -10 28 l 1,24,25
 73 63 73 63 140 149.5 c 128,-1,26
 207 236 207 236 278.5 391 c 128,-1,27
 350 546 350 546 381 600 c 0,28,29
 416 657 416 657 452 657 c 0,30,31
 475 657 475 657 488 641 c 128,-1,32
 501 625 501 625 501 599.5 c 128,-1,33
 501 574 501 574 483.5 389 c 128,-1,34
 466 204 466 204 466 152 c 128,-1,35
 466 100 466 100 470.5 84.5 c 128,-1,36
 475 69 475 69 486 69 c 0,37,38
 500 69 500 69 516 99 c 0,39,40
 571 206 571 206 676 611 c 1,0,-1
EndSplineSet
EndChar

StartChar: O
Encoding: 79 79 30
Width: 694
Flags: W
LayerCount: 2
Back
Fore
SplineSet
704 492 m 1,0,-1
 704 444 l 1,1,2
 659 418 659 418 538 373 c 1,3,4
 484 238 484 238 367 122 c 128,-1,5
 250 6 250 6 153 6 c 0,6,7
 98 6 98 6 64 45 c 128,-1,8
 30 84 30 84 30 152.5 c 128,-1,9
 30 221 30 221 76 317.5 c 128,-1,10
 122 414 122 414 197 498.5 c 128,-1,11
 272 583 272 583 350 623 c 1,12,13
 382 644 382 644 450 644 c 0,14,15
 501 644 501 644 533.5 604.5 c 128,-1,16
 566 565 566 565 566 511.5 c 128,-1,17
 566 458 566 458 558 431 c 1,18,19
 634 456 634 456 704 492 c 1,0,-1
307 527 m 1,20,21
 274 493 274 493 274 461.5 c 128,-1,22
 274 430 274 430 306 411.5 c 128,-1,23
 338 393 338 393 386.5 393 c 128,-1,24
 435 393 435 393 471 402 c 1,25,26
 477 432 477 432 477 460 c 0,27,28
 477 559 477 559 392 559 c 0,29,30
 353 559 353 559 307 527 c 1,20,21
320 149 m 0,31,32
 418 246 418 246 457 351 c 1,33,34
 432 346 432 346 393 346 c 0,35,36
 225 346 225 346 203 421 c 1,37,38
 119 304 119 304 119 191 c 0,39,40
 119 146 119 146 140.5 119 c 128,-1,41
 162 92 162 92 204 92 c 0,42,43
 263 92 263 92 320 149 c 0,31,32
EndSplineSet
EndChar

StartChar: P
Encoding: 80 80 31
Width: 658
Flags: W
LayerCount: 2
Back
Fore
SplineSet
473 618.5 m 128,-1,1
 503 631 503 631 543.5 631 c 128,-1,2
 584 631 584 631 606 603 c 128,-1,3
 628 575 628 575 628 523 c 0,4,5
 628 430 628 430 568 323 c 128,-1,6
 508 216 508 216 418 143.5 c 128,-1,7
 328 71 328 71 248 71 c 0,8,9
 228 71 228 71 202 73 c 1,10,11
 153 -31 153 -31 113 -84 c 128,-1,12
 73 -137 73 -137 33 -137 c 0,13,14
 8 -137 8 -137 -6 -119 c 128,-1,15
 -20 -101 -20 -101 -20 -69 c 0,16,17
 -20 34 -20 34 75 206.5 c 128,-1,18
 170 379 170 379 284 483 c 1,19,20
 300 549 300 549 300 579.5 c 128,-1,21
 300 610 300 610 298 626 c 1,22,-1
 370 638 l 1,23,24
 370 631 370 631 361 550 c 1,25,0
 443 606 443 606 473 618.5 c 128,-1,1
132 145 m 1,26,-1
 160 131 l 1,27,28
 223 254 223 254 266 407 c 1,29,30
 174 292 174 292 115 173 c 128,-1,31
 56 54 56 54 56 -10 c 0,32,33
 56 -29 56 -29 68 -29 c 0,34,35
 77 -29 77 -29 100 8.5 c 128,-1,36
 123 46 123 46 139 85 c 1,37,38
 126 91 126 91 114 103 c 1,39,-1
 132 145 l 1,26,-1
223 117 m 1,40,-1
 242 116 l 1,41,42
 339 116 339 116 424 218 c 0,43,44
 472 277 472 277 505.5 353 c 128,-1,45
 539 429 539 429 539 482 c 0,46,47
 539 511 539 511 523.5 528 c 128,-1,48
 508 545 508 545 481 545 c 0,49,50
 432 545 432 545 351 491 c 1,51,52
 333 356 333 356 223 117 c 1,40,-1
EndSplineSet
EndChar

StartChar: Q
Encoding: 81 81 32
Width: 665
Flags: W
LayerCount: 2
Back
Fore
SplineSet
625 111 m 1,0,-1
 685 77 l 1,1,2
 614 -27 614 -27 531 -27 c 0,3,4
 474 -27 474 -27 434 12 c 0,5,6
 401 44 401 44 356 106 c 1,7,8
 244 1 244 1 153 1 c 0,9,10
 98 1 98 1 64 40 c 128,-1,11
 30 79 30 79 30 144 c 128,-1,12
 30 209 30 209 68.5 296 c 128,-1,13
 107 383 107 383 166 458.5 c 128,-1,14
 225 534 225 534 302.5 586.5 c 128,-1,15
 380 639 380 639 450 639 c 0,16,17
 501 639 501 639 533.5 599.5 c 128,-1,18
 566 560 566 560 566 490.5 c 128,-1,19
 566 421 566 421 519.5 327 c 128,-1,20
 473 233 473 233 399 150 c 1,21,22
 422 118 422 118 437 98.5 c 128,-1,23
 452 79 452 79 479.5 57 c 128,-1,24
 507 35 507 35 533.5 35 c 128,-1,25
 560 35 560 35 590 59.5 c 128,-1,26
 620 84 620 84 625 111 c 1,0,-1
314 545 m 0,27,28
 243 494 243 494 188.5 387.5 c 128,-1,29
 134 281 134 281 134 197 c 0,30,31
 134 139 134 139 160 110 c 1,32,33
 179 176 179 176 213 211.5 c 128,-1,34
 247 247 247 247 288 247 c 0,35,36
 303 247 303 247 312 244 c 0,37,38
 334 238 334 238 370 189 c 1,39,40
 414 248 414 248 442.5 319.5 c 128,-1,41
 471 391 471 391 471 444.5 c 128,-1,42
 471 498 471 498 448.5 532.5 c 128,-1,43
 426 567 426 567 386 567 c 128,-1,44
 346 567 346 567 314 545 c 0,27,28
220 81 m 2,45,-1
 228 82 l 2,46,47
 279 87 279 87 328 144 c 1,48,49
 300 178 300 178 274 178 c 0,50,51
 260 178 260 178 251.5 175 c 128,-1,52
 243 172 243 172 227 150 c 128,-1,53
 211 128 211 128 196 85 c 1,54,55
 210 81 210 81 220 81 c 2,45,-1
EndSplineSet
EndChar

StartChar: R
Encoding: 82 82 33
Width: 635
Flags: W
LayerCount: 2
Back
Fore
SplineSet
500 -65 m 1,0,-1
 505 -112 l 1,1,2
 477 -117 477 -117 456 -117 c 0,3,4
 409 -117 409 -117 366 -54.5 c 128,-1,5
 323 8 323 8 298.5 92 c 128,-1,6
 274 176 274 176 268 254 c 1,7,8
 218 124 218 124 173.5 65.5 c 128,-1,9
 129 7 129 7 82 7 c 0,10,11
 58 7 58 7 44 26.5 c 128,-1,12
 30 46 30 46 30 78 c 0,13,14
 30 152 30 152 98.5 266 c 128,-1,15
 167 380 167 380 259 453 c 0,16,17
 261 459 261 459 276.5 526 c 128,-1,18
 292 593 292 593 295 600 c 1,19,-1
 353 605 l 1,20,21
 353 588 353 588 344 534 c 1,22,23
 479 637 479 637 566 637 c 0,24,25
 607 637 607 637 631 614.5 c 128,-1,26
 655 592 655 592 655 554 c 0,27,28
 655 459 655 459 559 362.5 c 128,-1,29
 463 266 463 266 354 249 c 1,30,31
 362 104 362 104 404.5 22 c 128,-1,32
 447 -60 447 -60 500 -65 c 1,0,-1
209 269 m 0,33,34
 236 341 236 341 246 384 c 1,35,36
 191 333 191 333 144.5 248 c 128,-1,37
 98 163 98 163 98 122 c 0,38,39
 98 101 98 101 115 101 c 0,40,41
 145 101 145 101 209 269 c 0,33,34
277 283 m 1,42,43
 383 283 383 283 467 357 c 128,-1,44
 551 431 551 431 551 504 c 0,45,46
 551 531 551 531 537.5 546 c 128,-1,47
 524 561 524 561 495 561 c 128,-1,48
 466 561 466 561 411 528.5 c 128,-1,49
 356 496 356 496 332 475 c 1,50,51
 301 352 301 352 277 283 c 1,42,43
EndSplineSet
EndChar

StartChar: S
Encoding: 83 83 34
Width: 627
Flags: W
LayerCount: 2
Back
Fore
SplineSet
526 181 m 1,0,-1
 597 182 l 1,1,-1
 597 141 l 1,2,3
 585 143 585 143 569 143 c 128,-1,4
 553 143 553 143 533 141 c 1,5,6
 533 64 533 64 459 -15 c 128,-1,7
 385 -94 385 -94 280.5 -143.5 c 128,-1,8
 176 -193 176 -193 86 -193 c 0,9,10
 39 -193 39 -193 9.5 -169 c 128,-1,11
 -20 -145 -20 -145 -20 -106 c 0,12,13
 -20 -48 -20 -48 57 15 c 128,-1,14
 134 78 134 78 237 119 c 128,-1,15
 340 160 340 160 423 167 c 1,16,17
 413 182 413 182 392 193 c 128,-1,18
 371 204 371 204 306 227.5 c 128,-1,19
 241 251 241 251 214 279.5 c 128,-1,20
 187 308 187 308 187 360 c 128,-1,21
 187 412 187 412 243 479 c 128,-1,22
 299 546 299 546 375.5 591.5 c 128,-1,23
 452 637 452 637 510 637 c 0,24,25
 536 637 536 637 553 618.5 c 128,-1,26
 570 600 570 600 570 573 c 0,27,28
 570 529 570 529 517 462.5 c 128,-1,29
 464 396 464 396 399 361 c 1,30,-1
 375 395 l 1,31,32
 414 415 414 415 443.5 457.5 c 128,-1,33
 473 500 473 500 473 531 c 128,-1,34
 473 562 473 562 440 562 c 0,35,36
 393 562 393 562 332.5 503.5 c 128,-1,37
 272 445 272 445 272 394 c 0,38,39
 272 359 272 359 290 339 c 128,-1,40
 308 319 308 319 381 289.5 c 128,-1,41
 454 260 454 260 485 237.5 c 128,-1,42
 516 215 516 215 526 181 c 1,0,-1
80 -80 m 0,43,44
 80 -128 80 -128 158 -128 c 0,45,46
 201 -128 201 -128 269.5 -96.5 c 128,-1,47
 338 -65 338 -65 390.5 -8.5 c 128,-1,48
 443 48 443 48 443 107 c 0,49,50
 443 114 443 114 440 128 c 1,51,52
 303 115 303 115 191.5 51 c 128,-1,53
 80 -13 80 -13 80 -80 c 0,43,44
EndSplineSet
EndChar

StartChar: T
Encoding: 84 84 35
Width: 570
Flags: W
LayerCount: 2
Back
Fore
SplineSet
449 555 m 1,0,-1
 306 558 l 1,1,2
 87 558 87 558 87 462 c 0,3,4
 87 437 87 437 105.5 421.5 c 128,-1,5
 124 406 124 406 161 406 c 128,-1,6
 198 406 198 406 258 440 c 1,7,-1
 273 414 l 1,8,9
 242 381 242 381 203 362 c 128,-1,10
 164 343 164 343 125 343 c 128,-1,11
 86 343 86 343 58 369 c 128,-1,12
 30 395 30 395 30 434 c 0,13,14
 30 513 30 513 115.5 572 c 128,-1,15
 201 631 201 631 347 631 c 0,16,17
 359 631 359 631 433 627 c 128,-1,18
 507 623 507 623 550 623 c 128,-1,19
 593 623 593 623 629 636 c 0,20,21
 643 640 643 640 646 640 c 0,22,23
 660 640 660 640 660 622 c 0,24,25
 660 596 660 596 614.5 575 c 128,-1,26
 569 554 569 554 510 554 c 1,27,28
 444 490 444 490 394.5 330.5 c 128,-1,29
 345 171 345 171 276.5 87.5 c 128,-1,30
 208 4 208 4 114 4 c 0,31,32
 77 4 77 4 44 28 c 1,33,-1
 67 66 l 1,34,35
 79 60 79 60 94 55 c 2,36,-1
 108 53 l 2,37,38
 113 52 113 52 123 52 c 0,39,40
 173 52 173 52 212.5 100 c 128,-1,41
 252 148 252 148 295.5 281.5 c 128,-1,42
 339 415 339 415 363.5 458.5 c 128,-1,43
 388 502 388 502 449 555 c 1,0,-1
EndSplineSet
EndChar

StartChar: U
Encoding: 85 85 36
Width: 701
Flags: W
LayerCount: 2
Back
Fore
SplineSet
563 78 m 1,0,-1
 595 52 l 1,1,2
 583 18 583 18 554 -10.5 c 128,-1,3
 525 -39 525 -39 491 -39 c 0,4,5
 445 -39 445 -39 416 6 c 128,-1,6
 387 51 387 51 378 136 c 1,7,8
 332 86 332 86 263 41.5 c 128,-1,9
 194 -3 194 -3 142 -3 c 128,-1,10
 90 -3 90 -3 60 32 c 128,-1,11
 30 67 30 67 30 122 c 0,12,13
 30 247 30 247 152 419 c 128,-1,14
 274 591 274 591 399 664 c 1,15,-1
 426 626 l 1,16,17
 312 541 312 541 217 402 c 128,-1,18
 122 263 122 263 122 158 c 0,19,20
 122 119 122 119 140.5 97.5 c 128,-1,21
 159 76 159 76 192.5 76 c 128,-1,22
 226 76 226 76 286 115 c 128,-1,23
 346 154 346 154 376 188 c 1,24,25
 381 285 381 285 422.5 385 c 128,-1,26
 464 485 464 485 521.5 548.5 c 128,-1,27
 579 612 579 612 629 612 c 0,28,29
 671 612 671 612 671 561 c 128,-1,30
 671 510 671 510 596 390.5 c 128,-1,31
 521 271 521 271 447 201 c 1,32,33
 445 185 445 185 445 175 c 0,34,35
 445 131 445 131 462.5 83.5 c 128,-1,36
 480 36 480 36 509 36 c 0,37,38
 534 36 534 36 563 78 c 1,0,-1
578 518 m 0,39,40
 545 518 545 518 505 440.5 c 128,-1,41
 465 363 465 363 454 276 c 1,42,43
 516 350 516 350 553.5 412.5 c 128,-1,44
 591 475 591 475 591 503 c 0,45,46
 591 518 591 518 578 518 c 0,39,40
EndSplineSet
EndChar

StartChar: V
Encoding: 86 86 37
Width: 568
Flags: W
LayerCount: 2
Back
Fore
SplineSet
549 612 m 1,0,-1
 578 569 l 1,1,2
 475 501 475 501 356 352.5 c 128,-1,3
 237 204 237 204 170 46 c 0,4,5
 156 13 156 13 145.5 2 c 128,-1,6
 135 -9 135 -9 115.5 -9 c 128,-1,7
 96 -9 96 -9 80.5 4.5 c 128,-1,8
 65 18 65 18 65 45.5 c 128,-1,9
 65 73 65 73 72.5 150.5 c 128,-1,10
 80 228 80 228 80 260 c 0,11,12
 80 485 80 485 30 623 c 1,13,-1
 103 643 l 1,14,15
 160 544 160 544 160 286 c 0,16,17
 160 202 160 202 157 152 c 1,18,19
 317 480 317 480 549 612 c 1,0,-1
EndSplineSet
EndChar

StartChar: W
Encoding: 87 87 38
Width: 789
Flags: W
LayerCount: 2
Back
Fore
SplineSet
719 620 m 1,0,-1
 793 630 l 1,1,2
 799 603 799 603 799 571 c 0,3,4
 799 491 799 491 761.5 389 c 128,-1,5
 724 287 724 287 671 203.5 c 128,-1,6
 618 120 618 120 558 62.5 c 128,-1,7
 498 5 498 5 457 5 c 0,8,9
 369 5 369 5 369 143 c 0,10,11
 369 209 369 209 416 417 c 1,12,13
 300 253 300 253 202 129.5 c 128,-1,14
 104 6 104 6 83.5 6 c 128,-1,15
 63 6 63 6 46.5 22 c 128,-1,16
 30 38 30 38 30 55 c 128,-1,17
 30 72 30 72 36 89 c 0,18,19
 79 218 79 218 92.5 331 c 128,-1,20
 106 444 106 444 106 533.5 c 128,-1,21
 106 623 106 623 105 644 c 1,22,-1
 183 644 l 1,23,24
 189 612 189 612 189 544.5 c 128,-1,25
 189 477 189 477 172.5 356.5 c 128,-1,26
 156 236 156 236 132 133 c 1,27,28
 207 229 207 229 442 555 c 0,29,30
 469 594 469 594 485.5 606.5 c 128,-1,31
 502 619 502 619 525.5 619 c 128,-1,32
 549 619 549 619 549 596 c 0,33,34
 549 587 549 587 524 510 c 128,-1,35
 499 433 499 433 476 319 c 128,-1,36
 453 205 453 205 453 146 c 128,-1,37
 453 87 453 87 483 87 c 0,38,39
 504 87 504 87 535 117 c 0,40,41
 612 191 612 191 666 320.5 c 128,-1,42
 720 450 720 450 720 587 c 0,43,44
 720 609 720 609 719 620 c 1,0,-1
EndSplineSet
EndChar

StartChar: X
Encoding: 88 88 39
Width: 644
Flags: W
LayerCount: 2
Back
Fore
SplineSet
326 345 m 1,0,1
 376 394 376 394 612 640 c 1,2,-1
 654 596 l 1,3,4
 607 536 607 536 483.5 414.5 c 128,-1,5
 360 293 360 293 351 284 c 1,6,7
 384 213 384 213 417.5 161 c 128,-1,8
 451 109 451 109 476 72 c 128,-1,9
 501 35 501 35 506 27 c 1,10,-1
 452 -24 l 1,11,12
 378 52 378 52 293 228 c 1,13,14
 259 196 259 196 212 150 c 128,-1,15
 165 104 165 104 142 82 c 0,16,17
 87 29 87 29 23 -14 c 1,18,-1
 -10 31 l 1,19,20
 -7 34 -7 34 93 119.5 c 128,-1,21
 193 205 193 205 267 287 c 1,22,23
 198 472 198 472 175 597 c 1,24,-1
 251 611 l 1,25,26
 299 408 299 408 326 345 c 1,0,1
EndSplineSet
EndChar

StartChar: Y
Encoding: 89 89 40
Width: 660
Flags: W
LayerCount: 2
Back
Fore
SplineSet
320 9 m 1,0,-1
 350 8 l 1,1,2
 356 29 356 29 377.5 88 c 128,-1,3
 399 147 399 147 408 166 c 1,4,5
 304 68 304 68 247 48 c 0,6,7
 216 37 216 37 184 37 c 0,8,9
 131 37 131 37 102 72 c 128,-1,10
 73 107 73 107 73 170 c 0,11,12
 73 260 73 260 156 410.5 c 128,-1,13
 239 561 239 561 345 646 c 1,14,-1
 385 609 l 1,15,16
 163 370 163 370 163 210 c 0,17,18
 163 117 163 117 236 117 c 128,-1,19
 309 117 309 117 378 197 c 128,-1,20
 447 277 447 277 521 445 c 0,21,22
 551 514 551 514 567 536 c 128,-1,23
 583 558 583 558 598 558 c 128,-1,24
 613 558 613 558 621.5 549 c 128,-1,25
 630 540 630 540 630 525 c 0,26,27
 630 461 630 461 538 335 c 1,28,29
 474 203 474 203 409 7 c 1,30,31
 456 4 456 4 509 -16 c 1,32,-1
 499 -50 l 1,33,-1
 393 -35 l 1,34,35
 334 -179 334 -179 250.5 -250.5 c 128,-1,36
 167 -322 167 -322 51 -322 c 0,37,38
 -9 -322 -9 -322 -49.5 -289.5 c 128,-1,39
 -90 -257 -90 -257 -90 -208 c 0,40,41
 -90 -118 -90 -118 31 -54.5 c 128,-1,42
 152 9 152 9 320 9 c 1,0,-1
96 -253 m 0,43,44
 177 -253 177 -253 239.5 -187.5 c 128,-1,45
 302 -122 302 -122 332 -34 c 1,46,47
 198 -34 198 -34 107 -79.5 c 128,-1,48
 16 -125 16 -125 16 -190 c 0,49,50
 16 -218 16 -218 38.5 -235.5 c 128,-1,51
 61 -253 61 -253 96 -253 c 0,43,44
EndSplineSet
EndChar

StartChar: Z
Encoding: 90 90 41
Width: 658
Flags: W
LayerCount: 2
Back
Fore
SplineSet
223 479 m 1,0,-1
 228 434 l 2,1,2
 228 426 228 426 222.5 419.5 c 128,-1,3
 217 413 217 413 210 413 c 0,4,5
 191 413 191 413 171 446 c 128,-1,6
 151 479 151 479 151 508 c 0,7,8
 151 571 151 571 225 593 c 128,-1,9
 299 615 299 615 433 615 c 128,-1,10
 567 615 567 615 597.5 606.5 c 128,-1,11
 628 598 628 598 628 559 c 0,12,13
 628 542 628 542 611.5 521 c 128,-1,14
 595 500 595 500 546.5 455 c 128,-1,15
 498 410 498 410 381.5 313 c 128,-1,16
 265 216 265 216 204 153 c 128,-1,17
 143 90 143 90 126 65 c 1,18,19
 168 63 168 63 180 63 c 0,20,21
 315 63 315 63 375 78 c 128,-1,22
 435 93 435 93 435 130 c 1,23,-1
 430 175 l 2,24,25
 430 183 430 183 435.5 189.5 c 128,-1,26
 441 196 441 196 448 196 c 0,27,28
 467 196 467 196 487 163 c 128,-1,29
 507 130 507 130 507 101 c 0,30,31
 507 38 507 38 433 16 c 128,-1,32
 359 -6 359 -6 225 -6 c 128,-1,33
 91 -6 91 -6 60.5 2.5 c 128,-1,34
 30 11 30 11 30 50 c 0,35,36
 30 77 30 77 107.5 151 c 128,-1,37
 185 225 185 225 304 325.5 c 128,-1,38
 423 426 423 426 466 468 c 128,-1,39
 509 510 509 510 532 544 c 1,40,41
 490 546 490 546 478 546 c 0,42,43
 343 546 343 546 283 531 c 128,-1,44
 223 516 223 516 223 479 c 1,0,-1
EndSplineSet
EndChar

StartChar: a
Encoding: 97 97 42
Width: 469
Flags: W
LayerCount: 2
Back
Fore
SplineSet
439 101 m 1,0,-1
 462 84 l 1,1,2
 448 54 448 54 410.5 27 c 128,-1,3
 373 0 373 0 342 0 c 0,4,5
 283 0 283 0 283 62 c 0,6,7
 283 91 283 91 298 131 c 1,8,-1
 261 93 l 2,9,10
 207 38 207 38 167.5 19 c 128,-1,11
 128 0 128 0 90 0 c 128,-1,12
 52 0 52 0 32.5 21.5 c 128,-1,13
 13 43 13 43 13 81 c 0,14,15
 13 151 13 151 67 219.5 c 128,-1,16
 121 288 121 288 205 331 c 128,-1,17
 289 374 289 374 373 375 c 1,18,-1
 375 342 l 1,19,-1
 333 333 l 2,20,21
 242 313 242 313 172.5 253 c 128,-1,22
 103 193 103 193 103 133.5 c 128,-1,23
 103 74 103 74 151 74 c 0,24,25
 196 74 196 74 262 137 c 128,-1,26
 328 200 328 200 372 285 c 1,27,-1
 414 260 l 1,28,29
 352 135 352 135 352 101 c 0,30,31
 352 87 352 87 361.5 77.5 c 128,-1,32
 371 68 371 68 380.5 68 c 128,-1,33
 390 68 390 68 393 69 c 128,-1,34
 396 70 396 70 399 71.5 c 128,-1,35
 402 73 402 73 406.5 76 c 128,-1,36
 411 79 411 79 414.5 82 c 128,-1,37
 418 85 418 85 426 91 c 128,-1,38
 434 97 434 97 439 101 c 1,0,-1
EndSplineSet
EndChar

StartChar: b
Encoding: 98 98 43
Width: 431
Flags: W
LayerCount: 2
Back
Fore
SplineSet
270.5 342.5 m 128,-1,1
 307 361 307 361 339.5 361 c 128,-1,2
 372 361 372 361 393.5 338.5 c 128,-1,3
 415 316 415 316 415 280 c 0,4,5
 415 187 415 187 337 84.5 c 128,-1,6
 259 -18 259 -18 169 -18 c 0,7,8
 142 -18 142 -18 118 -8 c 1,9,-1
 142 36 l 1,10,11
 158 32 158 32 167 32 c 0,12,13
 228 32 228 32 278 100 c 128,-1,14
 328 168 328 168 328 234 c 0,15,16
 328 255 328 255 314.5 268.5 c 128,-1,17
 301 282 301 282 280 282 c 0,18,19
 234 282 234 282 172.5 208 c 128,-1,20
 111 134 111 134 65 15 c 1,21,-1
 4 40 l 1,22,23
 34 193 34 193 124 413 c 128,-1,24
 214 633 214 633 274 724 c 1,25,-1
 325 706 l 1,26,27
 259 583 259 583 184.5 401 c 128,-1,28
 110 219 110 219 97 154 c 1,29,30
 138 226 138 226 186 275 c 128,-1,0
 234 324 234 324 270.5 342.5 c 128,-1,1
EndSplineSet
EndChar

StartChar: c
Encoding: 99 99 44
Width: 365
Flags: W
LayerCount: 2
Back
Fore
SplineSet
281 142 m 1,0,-1
 305 122 l 1,1,2
 281 67 281 67 228 34 c 128,-1,3
 175 1 175 1 125.5 1 c 128,-1,4
 76 1 76 1 43.5 32 c 128,-1,5
 11 63 11 63 11 117 c 128,-1,6
 11 171 11 171 58 234 c 128,-1,7
 105 297 105 297 179.5 338 c 128,-1,8
 254 379 254 379 326 379 c 0,9,10
 336 379 336 379 356 377 c 1,11,-1
 353 338 l 1,12,13
 243 333 243 333 170.5 271 c 128,-1,14
 98 209 98 209 98 139 c 0,15,16
 98 110 98 110 116 92 c 128,-1,17
 134 74 134 74 163 74 c 0,18,19
 209 74 209 74 281 142 c 1,0,-1
EndSplineSet
EndChar

StartChar: d
Encoding: 100 100 45
Width: 559
Flags: W
LayerCount: 2
Back
Fore
SplineSet
574 739 m 1,0,-1
 625 721 l 1,1,-1
 611 695 l 2,2,3
 501 490 501 490 424 298 c 0,4,5
 373 172 373 172 373 109 c 0,6,7
 373 93 373 93 381 83.5 c 128,-1,8
 389 74 389 74 406.5 74 c 128,-1,9
 424 74 424 74 447 97 c 1,10,-1
 465 80 l 1,11,12
 452 51 452 51 420 26.5 c 128,-1,13
 388 2 388 2 358 2 c 0,14,15
 300 2 300 2 300 70 c 0,16,17
 300 110 300 110 322 193 c 1,18,19
 204 -13 204 -13 91 -13 c 0,20,21
 52 -13 52 -13 29 11 c 128,-1,22
 6 35 6 35 6 76 c 0,23,24
 6 141 6 141 58 211 c 128,-1,25
 110 281 110 281 186 325.5 c 128,-1,26
 262 370 262 370 328 370 c 1,27,-1
 331 335 l 1,28,29
 245 324 245 324 170.5 260.5 c 128,-1,30
 96 197 96 197 96 131 c 0,31,32
 96 103 96 103 111 86.5 c 128,-1,33
 126 70 126 70 150 70 c 0,34,35
 199 70 199 70 278 175 c 0,36,37
 307 213 307 213 344.5 286 c 128,-1,38
 382 359 382 359 404.5 403.5 c 128,-1,39
 427 448 427 448 448.5 490.5 c 128,-1,40
 470 533 470 533 505 602.5 c 128,-1,41
 540 672 540 672 574 739 c 1,0,-1
EndSplineSet
EndChar

StartChar: e
Encoding: 101 101 46
Width: 381
Flags: W
LayerCount: 2
Back
Fore
SplineSet
290 118 m 1,0,-1
 313 100 l 1,1,2
 282 57 282 57 228 28.5 c 128,-1,3
 174 0 174 0 123 0 c 128,-1,4
 72 0 72 0 41 30 c 128,-1,5
 10 60 10 60 10 109 c 0,6,7
 10 201 10 201 107.5 290 c 128,-1,8
 205 379 205 379 305 379 c 0,9,10
 371 379 371 379 371 327 c 0,11,12
 371 273 371 273 301.5 218 c 128,-1,13
 232 163 232 163 106 118 c 1,14,15
 115 95 115 95 134 82 c 128,-1,16
 153 69 153 69 173 69 c 0,17,18
 216 69 216 69 290 118 c 1,0,-1
101 148 m 1,19,20
 182 176 182 176 240 218 c 128,-1,21
 298 260 298 260 298 295 c 0,22,23
 298 308 298 308 288 318 c 128,-1,24
 278 328 278 328 265 328 c 0,25,26
 218 328 218 328 163.5 269.5 c 128,-1,27
 109 211 109 211 101 148 c 1,19,20
EndSplineSet
EndChar

StartChar: f
Encoding: 102 102 47
Width: 341
Flags: W
LayerCount: 2
Back
Fore
SplineSet
224 393 m 1,0,-1
 192 272 l 1,1,-1
 322 287 l 1,2,-1
 293 240 l 1,3,-1
 181 225 l 1,4,5
 168 171 168 171 137 62 c 0,6,7
 70 -174 70 -174 70 -237 c 1,8,-1
 6 -270 l 1,9,10
 6 -184 6 -184 80 62 c 0,11,12
 118 185 118 185 127 220 c 1,13,14
 92 211 92 211 63 211 c 0,15,16
 6 211 6 211 6 256 c 0,17,18
 6 281 6 281 44 316 c 0,19,20
 99 367 99 367 175 406 c 1,21,22
 234 607 234 607 260 658 c 0,23,24
 295 727 295 727 324 746 c 0,25,26
 367 773 367 773 413 773 c 128,-1,27
 459 773 459 773 478 747 c 128,-1,28
 497 721 497 721 495 686 c 0,29,30
 490 560 490 560 224 393 c 1,0,-1
384 688 m 0,31,32
 328 688 328 688 301 634 c 0,33,34
 280 592 280 592 264 533 c 128,-1,35
 248 474 248 474 241 452 c 1,36,37
 296 486 296 486 359 544 c 128,-1,38
 422 602 422 602 424 645 c 128,-1,39
 426 688 426 688 384 688 c 0,31,32
141 267 m 1,40,-1
 163 355 l 1,41,42
 125 339 125 339 103.5 322 c 128,-1,43
 82 305 82 305 82 293 c 0,44,45
 82 267 82 267 141 267 c 1,40,-1
EndSplineSet
EndChar

StartChar: g
Encoding: 103 103 48
Width: 449
Flags: W
LayerCount: 2
Back
Fore
SplineSet
441 36 m 1,0,-1
 442 12 l 1,1,2
 432 6 432 6 351 -24 c 1,3,4
 319 -215 319 -215 257 -300 c 128,-1,5
 195 -385 195 -385 105 -385 c 0,6,7
 63 -385 63 -385 38 -358 c 128,-1,8
 13 -331 13 -331 13 -288 c 0,9,10
 13 -202 13 -202 92 -127.5 c 128,-1,11
 171 -53 171 -53 303 -10 c 1,12,13
 318 57 318 57 357 179 c 1,14,15
 290 77 290 77 235.5 41 c 128,-1,16
 181 5 181 5 137 5 c 128,-1,17
 93 5 93 5 70.5 29 c 128,-1,18
 48 53 48 53 48 93 c 0,19,20
 48 159 48 159 103 227.5 c 128,-1,21
 158 296 158 296 241.5 339.5 c 128,-1,22
 325 383 325 383 403 383 c 1,23,-1
 411 348 l 1,24,25
 300 336 300 336 220.5 270 c 128,-1,26
 141 204 141 204 141 143 c 0,27,28
 141 117 141 117 157 100 c 128,-1,29
 173 83 173 83 196 83 c 0,30,31
 230 83 230 83 299 155 c 128,-1,32
 368 227 368 227 396 278 c 1,33,-1
 433 257 l 1,34,35
 378 110 378 110 357 9 c 1,36,-1
 441 36 l 1,0,-1
297 -40 m 1,37,38
 210 -80 210 -80 153 -136 c 128,-1,39
 96 -192 96 -192 96 -238 c 0,40,41
 96 -262 96 -262 110 -277 c 128,-1,42
 124 -292 124 -292 145 -292 c 0,43,44
 187 -292 187 -292 228 -233 c 128,-1,45
 269 -174 269 -174 297 -40 c 1,37,38
EndSplineSet
EndChar

StartChar: h
Encoding: 104 104 49
Width: 433
Flags: W
LayerCount: 2
Back
Fore
SplineSet
396 73 m 1,0,-1
 419 54 l 1,1,2
 377 -16 377 -16 310 -16 c 0,3,4
 252 -16 252 -16 252 41 c 0,5,6
 252 74 252 74 280.5 146.5 c 128,-1,7
 309 219 309 219 309 242 c 0,8,9
 309 271 309 271 272 271 c 128,-1,10
 235 271 235 271 171.5 191.5 c 128,-1,11
 108 112 108 112 65 7 c 1,12,-1
 6 28 l 1,13,14
 58 289 58 289 278 727 c 1,15,-1
 327 711 l 1,16,17
 216 489 216 489 168 358 c 0,18,19
 118 222 118 222 93 133 c 1,20,21
 170 260 170 260 225.5 309 c 128,-1,22
 281 358 281 358 322 358 c 0,23,24
 396 358 396 358 396 305 c 0,25,26
 396 272 396 272 359 187 c 128,-1,27
 322 102 322 102 322 74 c 128,-1,28
 322 46 322 46 349 46 c 0,29,30
 363 46 363 46 396 73 c 1,0,-1
EndSplineSet
EndChar

StartChar: i
Encoding: 105 105 50
Width: 268
Flags: W
LayerCount: 2
Back
Fore
SplineSet
214 424 m 0,0,1
 158 424 158 424 158 469 c 0,2,3
 158 494 158 494 172 511 c 128,-1,4
 186 528 186 528 208 528 c 128,-1,5
 230 528 230 528 244 515 c 128,-1,6
 258 502 258 502 258 481 c 128,-1,7
 258 460 258 460 246 442 c 128,-1,8
 234 424 234 424 214 424 c 0,0,1
201 129 m 1,9,-1
 221 112 l 1,10,11
 197 66 197 66 157.5 33.5 c 128,-1,12
 118 1 118 1 86 1 c 0,13,14
 30 1 30 1 30 79 c 0,15,16
 30 176 30 176 110 332 c 0,17,18
 128 366 128 366 131 372 c 1,19,-1
 174 346 l 1,20,21
 153 308 153 308 122.5 225 c 128,-1,22
 92 142 92 142 92 118.5 c 128,-1,23
 92 95 92 95 102 85 c 128,-1,24
 112 75 112 75 126 75 c 0,25,26
 153 75 153 75 201 129 c 1,9,-1
EndSplineSet
EndChar

StartChar: j
Encoding: 106 106 51
Width: 403
Flags: W
LayerCount: 2
Back
Fore
SplineSet
316 141 m 1,0,1
 318 123 318 123 318 112 c 1,2,3
 265 99 265 99 222 82 c 1,4,5
 185 -96 185 -96 126 -187 c 128,-1,6
 67 -278 67 -278 -24 -278 c 0,7,8
 -69 -278 -69 -278 -94.5 -251 c 128,-1,9
 -120 -224 -120 -224 -120 -177 c 0,10,11
 -120 -92 -120 -92 -46 -22.5 c 128,-1,12
 28 47 28 47 169 97 c 1,13,14
 214 268 214 268 277 433 c 0,15,16
 296 483 296 483 298 493 c 1,17,-1
 348 477 l 1,18,19
 320 415 320 415 279.5 294 c 128,-1,20
 239 173 239 173 231 118 c 1,21,-1
 316 141 l 1,0,1
165 58 m 1,22,23
 40 -4 40 -4 7 -40 c 0,24,25
 -36 -87 -36 -87 -36 -138 c 0,26,27
 -36 -160 -36 -160 -23 -173 c 128,-1,28
 -10 -186 -10 -186 12 -186 c 0,29,30
 57 -186 57 -186 98.5 -117.5 c 128,-1,31
 140 -49 140 -49 165 58 c 1,22,23
412.5 575 m 128,-1,33
 402 556 402 556 378.5 556 c 128,-1,34
 355 556 355 556 338.5 569 c 128,-1,35
 322 582 322 582 322 605.5 c 128,-1,36
 322 629 322 629 338 647.5 c 128,-1,37
 354 666 354 666 374.5 666 c 128,-1,38
 395 666 395 666 409 651.5 c 128,-1,39
 423 637 423 637 423 615.5 c 128,-1,32
 423 594 423 594 412.5 575 c 128,-1,33
EndSplineSet
EndChar

StartChar: k
Encoding: 107 107 52
Width: 453
Flags: W
LayerCount: 2
Back
Fore
SplineSet
414 102 m 1,0,-1
 439 80 l 1,1,2
 381 -15 381 -15 316 -15 c 0,3,4
 276 -15 276 -15 234 44 c 128,-1,5
 192 103 192 103 192 141 c 0,6,7
 192 165 192 165 264 189 c 0,8,9
 291 198 291 198 313.5 216.5 c 128,-1,10
 336 235 336 235 336 255 c 128,-1,11
 336 275 336 275 325 285.5 c 128,-1,12
 314 296 314 296 297 296 c 0,13,14
 187 286 187 286 67 0 c 1,15,-1
 6 21 l 1,16,17
 6 64 6 64 122.5 369 c 128,-1,18
 239 674 239 674 288 738 c 1,19,-1
 337 720 l 1,20,21
 202 485 202 485 111 174 c 1,22,23
 189 291 189 291 245 330 c 128,-1,24
 301 369 301 369 352 369 c 0,25,26
 383 369 383 369 401.5 350 c 128,-1,27
 420 331 420 331 420 301.5 c 128,-1,28
 420 272 420 272 405.5 248 c 128,-1,29
 391 224 391 224 364 206 c 0,30,31
 325 180 325 180 268 155 c 1,32,33
 277 108 277 108 299 84 c 128,-1,34
 321 60 321 60 349 60 c 0,35,36
 364 60 364 60 414 102 c 1,0,-1
EndSplineSet
EndChar

StartChar: l
Encoding: 108 108 53
Width: 271
Flags: W
LayerCount: 2
Back
Fore
SplineSet
166 96 m 1,0,-1
 187 79 l 1,1,2
 153 26 153 26 128.5 2.5 c 128,-1,3
 104 -21 104 -21 74 -21 c 128,-1,4
 44 -21 44 -21 25 3 c 128,-1,5
 6 27 6 27 6 63 c 0,6,7
 6 133 6 133 98 364.5 c 128,-1,8
 190 596 190 596 287 772 c 1,9,-1
 331 748 l 1,10,11
 233 558 233 558 154 370.5 c 128,-1,12
 75 183 75 183 75 101 c 0,13,14
 75 54 75 54 110 54 c 0,15,16
 138 54 138 54 166 96 c 1,0,-1
EndSplineSet
EndChar

StartChar: m
Encoding: 109 109 54
Width: 722
Flags: W
LayerCount: 2
Back
Fore
SplineSet
687 130 m 1,0,-1
 708 110 l 1,1,2
 651 8 651 8 577 8 c 0,3,4
 547 8 547 8 530.5 24.5 c 128,-1,5
 514 41 514 41 514 68.5 c 128,-1,6
 514 96 514 96 547 163 c 128,-1,7
 580 230 580 230 582 265 c 0,8,9
 583 281 583 281 572.5 291 c 128,-1,10
 562 301 562 301 544 301 c 128,-1,11
 526 301 526 301 507.5 292.5 c 128,-1,12
 489 284 489 284 471.5 265 c 128,-1,13
 454 246 454 246 439.5 228 c 128,-1,14
 425 210 425 210 407.5 177 c 128,-1,15
 390 144 390 144 378 122 c 0,16,17
 357 81 357 81 318 -1 c 1,18,-1
 258 20 l 2,19,20
 258 23 258 23 291 133 c 128,-1,21
 324 243 324 243 324 264 c 128,-1,22
 324 285 324 285 314 294.5 c 128,-1,23
 304 304 304 304 289 304 c 0,24,25
 244 304 244 304 164.5 192 c 128,-1,26
 85 80 85 80 63 1 c 1,27,-1
 6 20 l 1,28,29
 11 73 11 73 53 210.5 c 128,-1,30
 95 348 95 348 124 398 c 1,31,-1
 169 382 l 1,32,33
 138 313 138 313 126 265.5 c 128,-1,34
 114 218 114 218 105 164 c 1,35,36
 191 287 191 287 249 336.5 c 128,-1,37
 307 386 307 386 354 386 c 0,38,39
 405 386 405 386 405 335 c 0,40,41
 405 315 405 315 387.5 256 c 128,-1,42
 370 197 370 197 360 163 c 1,43,44
 498 385 498 385 607 385 c 0,45,46
 634 385 634 385 650 368.5 c 128,-1,47
 666 352 666 352 666 319.5 c 128,-1,48
 666 287 666 287 628.5 212 c 128,-1,49
 591 137 591 137 591 117.5 c 128,-1,50
 591 98 591 98 599 89 c 128,-1,51
 607 80 607 80 619 80 c 0,52,53
 645 80 645 80 687 130 c 1,0,-1
EndSplineSet
EndChar

StartChar: n
Encoding: 110 110 55
Width: 464
Flags: W
LayerCount: 2
Back
Fore
SplineSet
429 121 m 1,0,-1
 450 105 l 1,1,2
 428 61 428 61 389.5 31 c 128,-1,3
 351 1 351 1 320 1 c 128,-1,4
 289 1 289 1 271 19 c 128,-1,5
 253 37 253 37 253 64 c 128,-1,6
 253 91 253 91 287.5 158.5 c 128,-1,7
 322 226 322 226 322 258 c 0,8,9
 322 272 322 272 310.5 283.5 c 128,-1,10
 299 295 299 295 283 295 c 0,11,12
 232 295 232 295 180 217.5 c 128,-1,13
 128 140 128 140 64 -6 c 1,14,-1
 4 15 l 1,15,16
 23 131 23 131 58.5 241.5 c 128,-1,17
 94 352 94 352 124 400 c 1,18,-1
 165 387 l 1,19,20
 137 316 137 316 94 142 c 1,21,22
 232 378 232 378 348 378 c 0,23,24
 373 378 373 378 389.5 361 c 128,-1,25
 406 344 406 344 406 321 c 128,-1,26
 406 298 406 298 400 279.5 c 128,-1,27
 394 261 394 261 362.5 193.5 c 128,-1,28
 331 126 331 126 331 109 c 128,-1,29
 331 92 331 92 341 82.5 c 128,-1,30
 351 73 351 73 360 73 c 128,-1,31
 369 73 369 73 375 76 c 128,-1,32
 381 79 381 79 388.5 85 c 128,-1,33
 396 91 396 91 402 96 c 128,-1,34
 408 101 408 101 416.5 109.5 c 128,-1,35
 425 118 425 118 429 121 c 1,0,-1
EndSplineSet
EndChar

StartChar: o
Encoding: 111 111 56
Width: 331
Flags: W
LayerCount: 2
Back
Fore
SplineSet
295 297 m 1,0,1
 321 254 321 254 321 202 c 0,2,3
 321 121 321 121 265 57.5 c 128,-1,4
 209 -6 209 -6 133 -6 c 0,5,6
 75 -6 75 -6 42.5 27.5 c 128,-1,7
 10 61 10 61 10 120 c 0,8,9
 10 215 10 215 84 290.5 c 128,-1,10
 158 366 158 366 250 366 c 0,11,12
 267 366 267 366 274 365 c 1,13,-1
 277 332 l 1,14,15
 197 332 197 332 144 286 c 128,-1,16
 91 240 91 240 91 168 c 0,17,18
 91 125 91 125 112 98.5 c 128,-1,19
 133 72 133 72 173.5 72 c 128,-1,20
 214 72 214 72 238 108 c 128,-1,21
 262 144 262 144 262 192.5 c 128,-1,22
 262 241 262 241 243 281 c 1,23,-1
 295 297 l 1,0,1
EndSplineSet
EndChar

StartChar: p
Encoding: 112 112 57
Width: 495
Flags: W
LayerCount: 2
Back
Fore
SplineSet
291 339.5 m 128,-1,1
 347 381 347 381 389 381 c 128,-1,2
 431 381 431 381 454 355.5 c 128,-1,3
 477 330 477 330 477 291 c 0,4,5
 477 183 477 183 399.5 91.5 c 128,-1,6
 322 0 322 0 225 0 c 0,7,8
 182 0 182 0 157 15 c 1,9,-1
 181 58 l 1,10,11
 233 51 233 51 246 51 c 0,12,13
 300 51 300 51 347 114 c 128,-1,14
 394 177 394 177 394 243 c 0,15,16
 394 268 394 268 379.5 284.5 c 128,-1,17
 365 301 365 301 342 301 c 0,18,19
 287 301 287 301 217.5 204 c 128,-1,20
 148 107 148 107 87.5 -36.5 c 128,-1,21
 27 -180 27 -180 -18 -342 c 1,22,-1
 -78 -321 l 1,23,24
 -76 -315 -76 -315 -40.5 -217.5 c 128,-1,25
 -5 -120 -5 -120 29 -24 c 0,26,27
 123 240 123 240 123 265 c 0,28,29
 123 329 123 329 97 381 c 1,30,-1
 147 406 l 1,31,32
 178 363 178 363 178 315.5 c 128,-1,33
 178 268 178 268 159 184 c 1,34,0
 235 298 235 298 291 339.5 c 128,-1,1
EndSplineSet
EndChar

StartChar: q
Encoding: 113 113 58
Width: 422
Flags: W
LayerCount: 2
Back
Fore
SplineSet
164 -348 m 1,0,-1
 110 -326 l 1,1,2
 110 -258 110 -258 309 181 c 1,3,4
 233 79 233 79 181.5 41.5 c 128,-1,5
 130 4 130 4 90 4 c 0,6,7
 12 4 12 4 12 91 c 0,8,9
 12 163 12 163 61.5 231 c 128,-1,10
 111 299 111 299 193 341.5 c 128,-1,11
 275 384 275 384 362 384 c 1,12,-1
 371 349 l 1,13,14
 277 347 277 347 189.5 287 c 128,-1,15
 102 227 102 227 102 144 c 0,16,17
 102 91 102 91 147 91 c 0,18,19
 180 91 180 91 219.5 128.5 c 128,-1,20
 259 166 259 166 303.5 220.5 c 128,-1,21
 348 275 348 275 375 295 c 1,22,-1
 414 273 l 1,23,24
 193 -171 193 -171 164 -348 c 1,0,-1
EndSplineSet
EndChar

StartChar: r
Encoding: 114 114 59
Width: 355
Flags: W
LayerCount: 2
Back
Fore
SplineSet
290 354 m 0,0,1
 315 354 315 354 331 337 c 128,-1,2
 347 320 347 320 347 293 c 0,3,4
 347 239 347 239 285 179 c 1,5,-1
 261 198 l 1,6,7
 275 229 275 229 275 243 c 0,8,9
 275 270 275 270 245 270 c 128,-1,10
 215 270 215 270 188 232 c 128,-1,11
 161 194 161 194 124.5 114.5 c 128,-1,12
 88 35 88 35 69 2 c 1,13,-1
 12 27 l 1,14,15
 67 152 67 152 75 174 c 0,16,17
 102 252 102 252 102 372 c 1,18,-1
 158 387 l 1,19,20
 155 322 155 322 149 286.5 c 128,-1,21
 143 251 143 251 120 171 c 1,22,23
 221 354 221 354 290 354 c 0,0,1
EndSplineSet
EndChar

StartChar: s
Encoding: 115 115 60
Width: 331
Flags: W
LayerCount: 2
Back
Fore
SplineSet
337 391 m 1,0,-1
 328 352 l 1,1,2
 311 354 311 354 284 354 c 0,3,4
 184 354 184 354 184 288 c 0,5,6
 184 274 184 274 224.5 206 c 128,-1,7
 265 138 265 138 265 115 c 0,8,9
 265 61 265 61 228.5 30.5 c 128,-1,10
 192 0 192 0 131 0 c 0,11,12
 47 0 47 0 -4 93 c 1,13,-1
 34 120 l 1,14,15
 48 109 48 109 64 93.5 c 128,-1,16
 80 78 80 78 88 72 c 0,17,18
 107 55 107 55 130 55 c 128,-1,19
 153 55 153 55 170 71.5 c 128,-1,20
 187 88 187 88 187 112.5 c 128,-1,21
 187 137 187 137 143.5 204 c 128,-1,22
 100 271 100 271 100 298 c 0,23,24
 100 347 100 347 141.5 373 c 128,-1,25
 183 399 183 399 250.5 399 c 128,-1,26
 318 399 318 399 337 391 c 1,0,-1
EndSplineSet
EndChar

StartChar: t
Encoding: 116 116 61
Width: 330
Flags: W
LayerCount: 2
Back
Fore
SplineSet
244 112 m 1,0,-1
 266 87 l 1,1,2
 241 48 241 48 205.5 26 c 128,-1,3
 170 4 170 4 134 4 c 128,-1,4
 98 4 98 4 77 24.5 c 128,-1,5
 56 45 56 45 56 81 c 0,6,7
 56 165 56 165 119 313 c 1,8,9
 68 305 68 305 17 289 c 1,10,-1
 10 328 l 1,11,-1
 9 329 l 1,12,13
 59 350 59 350 140 363 c 1,14,15
 148 378 148 378 176 436 c 0,16,17
 232 551 232 551 256 585 c 1,18,-1
 299 568 l 1,19,20
 289 546 289 546 264 494.5 c 128,-1,21
 239 443 239 443 208 378 c 1,22,23
 253 381 253 381 279 381 c 128,-1,24
 305 381 305 381 319 373 c 1,25,-1
 319 330 l 1,26,27
 305 333 305 333 278.5 333 c 128,-1,28
 252 333 252 333 184 324 c 1,29,30
 125 192 125 192 125 132 c 0,31,32
 125 109 125 109 139.5 94 c 128,-1,33
 154 79 154 79 178.5 79 c 128,-1,34
 203 79 203 79 244 112 c 1,0,-1
EndSplineSet
EndChar

StartChar: u
Encoding: 117 117 62
Width: 440
Flags: W
LayerCount: 2
Back
Fore
SplineSet
411 110 m 2,0,-1
 432 93 l 1,1,2
 415 51 415 51 378.5 22 c 128,-1,3
 342 -7 342 -7 312.5 -7 c 128,-1,4
 283 -7 283 -7 266 13.5 c 128,-1,5
 249 34 249 34 249 67 c 128,-1,6
 249 100 249 100 260 152 c 1,7,8
 213 78 213 78 159 36 c 128,-1,9
 105 -6 105 -6 68 -6 c 0,10,11
 12 -6 12 -6 12 74 c 0,12,13
 12 142 12 142 58 248 c 128,-1,14
 104 354 104 354 125 371 c 1,15,-1
 173 350 l 1,16,17
 132 284 132 284 111 220 c 128,-1,18
 90 156 90 156 90 134.5 c 128,-1,19
 90 113 90 113 103.5 100 c 128,-1,20
 117 87 117 87 135 87 c 0,21,22
 175 87 175 87 234.5 160.5 c 128,-1,23
 294 234 294 234 356 380 c 1,24,-1
 407 357 l 1,25,26
 405 349 405 349 361.5 241 c 128,-1,27
 318 133 318 133 318 111.5 c 128,-1,28
 318 90 318 90 327.5 79 c 128,-1,29
 337 68 337 68 346.5 68 c 128,-1,30
 356 68 356 68 361 69 c 128,-1,31
 366 70 366 70 371 73 c 128,-1,32
 376 76 376 76 379.5 78 c 128,-1,33
 383 80 383 80 388 85 c 2,34,-1
 396 92 l 2,35,36
 398 95 398 95 403.5 101.5 c 128,-1,37
 409 108 409 108 411 110 c 2,0,-1
EndSplineSet
EndChar

StartChar: v
Encoding: 118 118 63
Width: 380
Flags: W
LayerCount: 2
Back
Fore
SplineSet
337 358 m 1,0,-1
 371 331 l 1,1,2
 238 156 238 156 191 39 c 0,3,4
 175 0 175 0 145 0 c 0,5,6
 126 0 126 0 111.5 20 c 128,-1,7
 97 40 97 40 92.5 56.5 c 128,-1,8
 88 73 88 73 78 126 c 128,-1,9
 68 179 68 179 56 236.5 c 128,-1,10
 44 294 44 294 36.5 322.5 c 128,-1,11
 29 351 29 351 26.5 360 c 128,-1,12
 24 369 24 369 18 375.5 c 128,-1,13
 12 382 12 382 11 384 c 2,14,-1
 76 378 l 1,15,16
 105 307 105 307 122 224 c 0,17,18
 126 207 126 207 136 155.5 c 128,-1,19
 146 104 146 104 152 75 c 1,20,21
 207 181 207 181 248.5 247.5 c 128,-1,22
 290 314 290 314 337 358 c 1,0,-1
EndSplineSet
EndChar

StartChar: w
Encoding: 119 119 64
Width: 597
Flags: W
LayerCount: 2
Back
Fore
SplineSet
578 389 m 1,0,-1
 606 363 l 1,1,-1
 546 290 l 2,2,3
 440 159 440 159 389 30 c 0,4,5
 376 3 376 3 362.5 3 c 128,-1,6
 349 3 349 3 340.5 6.5 c 128,-1,7
 332 10 332 10 321.5 32 c 128,-1,8
 311 54 311 54 307 85 c 128,-1,9
 303 116 303 116 300 138 c 128,-1,10
 297 160 297 160 296 170.5 c 128,-1,11
 295 181 295 181 293.5 192.5 c 128,-1,12
 292 204 292 204 291 210 c 128,-1,13
 290 216 290 216 289 222 c 128,-1,14
 288 228 288 228 286 233.5 c 128,-1,15
 284 239 284 239 283 243.5 c 128,-1,16
 282 248 282 248 278.5 259 c 128,-1,17
 275 270 275 270 273 278 c 1,18,19
 221 222 221 222 184 146 c 0,20,21
 170 117 170 117 129 30 c 0,22,23
 120 11 120 11 104.5 11 c 128,-1,24
 89 11 89 11 79.5 14.5 c 128,-1,25
 70 18 70 18 60 38 c 128,-1,26
 50 58 50 58 45 98 c 0,27,28
 21 299 21 299 -1 372 c 1,29,30
 28 380 28 380 57 380 c 1,31,32
 62 371 62 371 70 325 c 0,33,34
 87 236 87 236 113 116 c 1,35,36
 162 210 162 210 221.5 289.5 c 128,-1,37
 281 369 281 369 300 369 c 0,38,39
 322 369 322 369 330.5 338.5 c 128,-1,40
 339 308 339 308 345.5 236.5 c 128,-1,41
 352 165 352 165 363 117 c 1,42,43
 457 278 457 278 578 389 c 1,0,-1
EndSplineSet
EndChar

StartChar: x
Encoding: 120 120 65
Width: 444
Flags: W
LayerCount: 2
Back
Fore
SplineSet
197 167 m 1,0,1
 138 114 138 114 38 -6 c 1,2,-1
 10 17 l 1,3,4
 29 63 29 63 173 209 c 1,5,6
 135 301 135 301 131 360 c 1,7,-1
 197 372 l 1,8,9
 202 365 202 365 236 251 c 1,10,11
 362 341 362 341 415 366 c 1,12,-1
 434 339 l 1,13,14
 417 325 417 325 374 296 c 0,15,16
 259 218 259 218 253 212 c 1,17,18
 307 97 307 97 382 14 c 1,19,-1
 335 -16 l 1,20,21
 253 44 253 44 197 167 c 1,0,1
EndSplineSet
EndChar

StartChar: y
Encoding: 121 121 66
Width: 451
Flags: W
LayerCount: 2
Back
Fore
SplineSet
421 63 m 1,0,-1
 424 37 l 1,1,2
 420 34 420 34 331 1 c 1,3,4
 319 -65 319 -65 300.5 -129.5 c 128,-1,5
 282 -194 282 -194 263.5 -227.5 c 128,-1,6
 245 -261 245 -261 220 -294 c 0,7,8
 170 -360 170 -360 85 -360 c 0,9,10
 43 -360 43 -360 18 -334 c 128,-1,11
 -7 -308 -7 -308 -7 -263 c 0,12,13
 -7 -90 -7 -90 283 15 c 1,14,-1
 337 205 l 1,15,16
 251 76 251 76 182 46 c 0,17,18
 148 30 148 30 110.5 30 c 128,-1,19
 73 30 73 30 50.5 54 c 128,-1,20
 28 78 28 78 28 124 c 128,-1,21
 28 170 28 170 59.5 252.5 c 128,-1,22
 91 335 91 335 130 391 c 1,23,-1
 179 370 l 2,24,25
 176 367 176 367 151 317 c 0,26,27
 107 226 107 226 107 182 c 128,-1,28
 107 138 107 138 124 123 c 128,-1,29
 141 108 141 108 174 108 c 128,-1,30
 207 108 207 108 248.5 147.5 c 128,-1,31
 290 187 290 187 377 304 c 1,32,-1
 413 283 l 1,33,34
 405 250 405 250 377.5 163.5 c 128,-1,35
 350 77 350 77 340 31 c 1,36,-1
 421 63 l 1,0,-1
277 -15 m 1,37,38
 214 -44 214 -44 166 -81 c 0,39,40
 76 -149 76 -149 76 -213 c 0,41,42
 76 -237 76 -237 90 -252 c 128,-1,43
 104 -267 104 -267 125 -267 c 0,44,45
 225 -267 225 -267 277 -15 c 1,37,38
EndSplineSet
EndChar

StartChar: z
Encoding: 122 122 67
Width: 419
Flags: W
LayerCount: 2
Back
Fore
SplineSet
355 74 m 1,0,-1
 354 32 l 1,1,2
 331 31 331 31 291 30 c 128,-1,3
 251 29 251 29 235.5 28.5 c 128,-1,4
 220 28 220 28 193 26 c 0,5,6
 147 23 147 23 108 14 c 0,7,8
 59 3 59 3 55 3 c 0,9,10
 36 3 36 3 16.5 26 c 128,-1,11
 -3 49 -3 49 -3 71 c 0,12,13
 -3 113 -3 113 297 324 c 1,14,15
 284 325 284 325 237.5 325 c 128,-1,16
 191 325 191 325 76 305 c 1,17,-1
 70 339 l 1,18,19
 138 380 138 380 324 380 c 0,20,21
 363 380 363 380 379.5 374 c 128,-1,22
 396 368 396 368 396 347 c 0,23,24
 396 324 396 324 370 305 c 0,25,26
 365 301 365 301 353.5 294 c 128,-1,27
 342 287 342 287 312 266 c 128,-1,28
 282 245 282 245 251.5 222.5 c 128,-1,29
 221 200 221 200 174 155 c 128,-1,30
 127 110 127 110 84 56 c 1,31,32
 222 78 222 78 270.5 78 c 128,-1,33
 319 78 319 78 355 74 c 1,0,-1
EndSplineSet
EndChar
